<svg xmlns="http://www.w3.org/2000/svg" width="85" height="63" viewBox="0 0 85 63">
  <g id="Grupo_894662" data-name="Grupo 894662" transform="translate(-180 -3657)" opacity="0.91">
    <rect id="Rectángulo_6967" data-name="Rectángulo 6967" width="85" height="63" rx="11" transform="translate(180 3657)" fill="#ffd947"/>
    <g id="circuit-board" transform="translate(198.969 3673.604)">
      <g id="Grupo_54868" data-name="Grupo 54868" transform="translate(1.555 0.758)">
        <g id="Grupo_54858" data-name="Grupo 54858" transform="translate(0 0)">
          <path id="Trazado_103200" data-name="Trazado 103200" d="M42.473,28.821V24.27H43.99a1.521,1.521,0,0,0,1.517-1.517V7.585A1.521,1.521,0,0,0,43.99,6.068H42.473V1.517A1.521,1.521,0,0,0,40.956,0H18.2a1.521,1.521,0,0,0-1.517,1.517V3.034a3.034,3.034,0,1,1-6.068,0V1.517A1.521,1.521,0,0,0,9.1,0H1.517A1.521,1.521,0,0,0,0,1.517v27.3a1.521,1.521,0,0,0,1.517,1.517H40.956A1.521,1.521,0,0,0,42.473,28.821Z" fill="#00cca7"/>
        </g>
        <g id="Grupo_54859" data-name="Grupo 54859" transform="translate(9.101 9.101)">
          <path id="Trazado_103201" data-name="Trazado 103201" d="M3.034,17.444V.758A.761.761,0,0,0,2.275,0H.758A.761.761,0,0,0,0,.758V17.444a.761.761,0,0,0,.758.758H2.275A.761.761,0,0,0,3.034,17.444Z" transform="translate(0 0)" fill="#b3009d"/>
        </g>
        <g id="Grupo_54860" data-name="Grupo 54860" transform="translate(3.034 9.101)">
          <path id="Trazado_103202" data-name="Trazado 103202" d="M3.034,17.444V.758A.761.761,0,0,0,2.275,0H.758A.761.761,0,0,0,0,.758V17.444a.761.761,0,0,0,.758.758H2.275A.761.761,0,0,0,3.034,17.444Z" transform="translate(0 0)" fill="#b3009d"/>
        </g>
        <g id="Grupo_54861" data-name="Grupo 54861" transform="translate(18.203 13.652)">
          <path id="Trazado_103203" data-name="Trazado 103203" d="M12.135,1.517V0H0V9.1H12.135V1.517Z" fill="#ffd947"/>
        </g>
        <g id="Grupo_54862" data-name="Grupo 54862" transform="translate(37.922 18.203)">
          <ellipse id="Elipse_4214" data-name="Elipse 4214" cx="1.517" cy="1.517" rx="1.517" ry="1.517" fill="#ffd947"/>
        </g>
        <g id="Grupo_54863" data-name="Grupo 54863" transform="translate(37.922 10.618)">
          <ellipse id="Elipse_4215" data-name="Elipse 4215" cx="1.517" cy="1.517" rx="1.517" ry="1.517" fill="#ffd947"/>
        </g>
        <g id="Grupo_54864" data-name="Grupo 54864" transform="translate(3.034 3.034)">
          <path id="Trazado_103204" data-name="Trazado 103204" d="M0,3.034H4.551V0H0Z" fill="#ffd947"/>
        </g>
        <g id="Grupo_54865" data-name="Grupo 54865" transform="translate(19.72 3.034)">
          <path id="Trazado_103205" data-name="Trazado 103205" d="M0,3.034H4.551V0H0Z" fill="#ffd947"/>
        </g>
        <g id="Grupo_54866" data-name="Grupo 54866" transform="translate(27.304 3.034)">
          <path id="Trazado_103206" data-name="Trazado 103206" d="M0,3.034H4.551V0H0Z" fill="#ffd947"/>
        </g>
        <g id="Grupo_54867" data-name="Grupo 54867" transform="translate(34.889 3.034)">
          <path id="Trazado_103207" data-name="Trazado 103207" d="M0,3.034H4.551V0H0Z" fill="#ffd947"/>
        </g>
      </g>
      <g id="Grupo_54869" data-name="Grupo 54869" transform="translate(0 0)">
        <path id="Trazado_103208" data-name="Trazado 103208" d="M44.748,25.787H43.99V29.58a2.278,2.278,0,0,1-2.275,2.275H2.275A2.278,2.278,0,0,1,0,29.58V2.275A2.278,2.278,0,0,1,2.275,0H9.86a2.278,2.278,0,0,1,2.275,2.275V3.792a2.275,2.275,0,1,0,4.551,0V2.275A2.278,2.278,0,0,1,18.961,0H41.715A2.278,2.278,0,0,1,43.99,2.275V6.068h.758a2.278,2.278,0,0,1,2.275,2.275V23.512A2.278,2.278,0,0,1,44.748,25.787Zm.758-17.444a.759.759,0,0,0-.758-.758H42.473V2.275a.759.759,0,0,0-.758-.758H18.961a.759.759,0,0,0-.758.758V3.792a3.792,3.792,0,1,1-7.584,0V2.275a.759.759,0,0,0-.758-.758H2.275a.759.759,0,0,0-.758.758v27.3a.759.759,0,0,0,.758.758H41.715a.759.759,0,0,0,.758-.758V24.27h2.275a.759.759,0,0,0,.758-.758Z"/>
        <path id="Trazado_103209" data-name="Trazado 103209" d="M0,0H6.068V4.551H0ZM1.517,3.034H4.551V1.517H1.517Z" transform="translate(3.034 3.034)"/>
        <path id="Trazado_103210" data-name="Trazado 103210" d="M0,0H6.068V4.551H0ZM1.517,3.034H4.551V1.517H1.517Z" transform="translate(19.72 3.034)"/>
        <path id="Trazado_103211" data-name="Trazado 103211" d="M0,0H6.068V4.551H0ZM1.517,3.034H4.551V1.517H1.517Z" transform="translate(27.304 3.034)"/>
        <path id="Trazado_103212" data-name="Trazado 103212" d="M0,0H6.068V4.551H0ZM1.517,3.034H4.551V1.517H1.517Z" transform="translate(34.889 3.034)"/>
        <path id="Trazado_103213" data-name="Trazado 103213" d="M12.135,0V3.034h1.517V0h1.517V3.034h1.517V4.551H19.72V6.068H16.686V7.585H19.72V9.1H16.686v1.517H19.72v1.517H16.686v1.517H15.169v3.034H13.652V13.652H12.135v3.034H10.618V13.652H9.1v3.034H7.584V13.652H6.068v3.034H4.551V13.652H3.034V12.135H0V10.618H3.034V9.1H0V7.585H3.034V6.068H0V4.551H3.034V3.034H4.551V0H6.068V3.034H7.584V0H9.1V3.034h1.517V0ZM4.551,12.135H15.169V4.551H4.551Z" transform="translate(15.169 10.618)"/>
        <path id="Trazado_103214" data-name="Trazado 103214" d="M0,1.517H1.517V0H0Z" transform="translate(21.236 19.72)"/>
        <path id="Trazado_103215" data-name="Trazado 103215" d="M0,1.517H4.551V0H0Z" transform="translate(24.27 19.72)"/>
        <path id="Trazado_103216" data-name="Trazado 103216" d="M0,1.517H7.584V0H0Z" transform="translate(21.236 16.686)"/>
        <path id="Trazado_103217" data-name="Trazado 103217" d="M1.517,0H3.034A1.518,1.518,0,0,1,4.551,1.517V18.2A1.518,1.518,0,0,1,3.034,19.72H1.517A1.518,1.518,0,0,1,0,18.2V1.517A1.518,1.518,0,0,1,1.517,0Zm0,18.2H3.034V1.517H1.517Z" transform="translate(3.034 9.101)"/>
        <path id="Trazado_103218" data-name="Trazado 103218" d="M3.034,19.72H1.517A1.518,1.518,0,0,1,0,18.2V1.517A1.518,1.518,0,0,1,1.517,0H3.034A1.518,1.518,0,0,1,4.551,1.517V18.2A1.518,1.518,0,0,1,3.034,19.72ZM1.517,1.517V18.2H3.034V1.517Z" transform="translate(9.101 9.101)"/>
        <path id="Trazado_103219" data-name="Trazado 103219" d="M2.275,4.551A2.275,2.275,0,1,1,4.551,2.275,2.278,2.278,0,0,1,2.275,4.551Zm0-3.034a.758.758,0,1,0,.758.758A.759.759,0,0,0,2.275,1.517Z" transform="translate(37.922 18.203)"/>
        <path id="Trazado_103220" data-name="Trazado 103220" d="M2.275,4.551A2.275,2.275,0,1,1,4.551,2.275,2.278,2.278,0,0,1,2.275,4.551Zm0-3.034a.758.758,0,1,0,.758.758A.759.759,0,0,0,2.275,1.517Z" transform="translate(37.922 10.618)"/>
        <path id="Trazado_103221" data-name="Trazado 103221" d="M0,1.517H1.517V0H0Z" transform="translate(33.372 27.304)"/>
        <path id="Trazado_103222" data-name="Trazado 103222" d="M0,1.517H1.517V0H0Z" transform="translate(39.439 27.304)"/>
        <path id="Trazado_103223" data-name="Trazado 103223" d="M0,1.517H1.517V0H0Z" transform="translate(36.405 27.304)"/>
      </g>
    </g>
  </g>
</svg>
