<svg xmlns="http://www.w3.org/2000/svg" width="80.398" height="85.545" viewBox="0 0 80.398 85.545">
  <g id="Grupo_897944" data-name="Grupo 897944" transform="translate(-1018.99 -1609.322)">
    <path id="Trazado_626071" data-name="Trazado 626071" d="M7.159,83.545a2.134,2.134,0,0,0-.285-.154,2.851,2.851,0,0,1-.634-5.133c.091-.059.178-.125.337-.237-.458-.537-.893-1.053-1.334-1.564-1.6-1.855-3.221-3.7-4.8-5.575a1.893,1.893,0,0,1-.427-1.115Q-.018,57.076.023,44.385A1.9,1.9,0,0,1,.565,43.2Q12.16,31.547,23.8,19.948a2.193,2.193,0,0,0,.715-1.727c-.033-3.976-.018-7.952-.012-11.928,0-.369-.007-.65-.437-.841a2.659,2.659,0,0,1-1.7-2.667,2.774,2.774,0,0,1,1.9-2.618A1.856,1.856,0,0,0,24.533,0h1.326a3.283,3.283,0,0,1,2.114,2.1,2.779,2.779,0,0,1-1.459,3.279.861.861,0,0,0-.57.955c.016,4.175,0,8.349.023,12.524a2.172,2.172,0,0,1-.712,1.685Q13.571,32.2,1.907,43.864a1.482,1.482,0,0,0-.465,1.162c.012,8.062,0,16.124.026,24.186a1.864,1.864,0,0,0,.41,1.108c2.026,2.394,4.084,4.76,6.143,7.126a1.922,1.922,0,0,0,.667.508,2.9,2.9,0,0,1,1.931,2.739,2.858,2.858,0,0,1-1.985,2.7,2.172,2.172,0,0,0-.283.155Zm-.807-2.907a1.412,1.412,0,0,0,1.4,1.443A1.43,1.43,0,0,0,9.162,80.7a1.394,1.394,0,0,0-1.347-1.426,1.379,1.379,0,0,0-1.463,1.367M25.239,4.277a1.416,1.416,0,0,0,1.393-1.39,1.441,1.441,0,0,0-1.44-1.421,1.4,1.4,0,0,0-1.375,1.4,1.372,1.372,0,0,0,1.422,1.409" transform="translate(1019.99 1610.322)" stroke="#000" stroke-width="2"/>
    <path id="Trazado_626072" data-name="Trazado 626072" d="M70.519,113.6a9.24,9.24,0,0,1-.987-.515,2.735,2.735,0,0,1-.881-3.673.667.667,0,0,0-.1-.917c-2.167-2.478-4.309-4.977-6.475-7.456a1.856,1.856,0,0,1-.494-1.312q.018-12.594,0-25.188a1.67,1.67,0,0,1,.528-1.287Q73.861,61.526,85.6,49.786a1.481,1.481,0,0,0,.472-1.161c-.017-4.264-.01-8.529-.009-12.793,0-.22-.063-.5.046-.647a1.222,1.222,0,0,1,.717-.53c.206-.013.5.3.635.53a1.537,1.537,0,0,1,.053.715c0,4.375-.008,8.75.012,13.124a1.956,1.956,0,0,1-.63,1.516Q75.141,62.262,63.42,74.022a1.435,1.435,0,0,0-.367.92q-.029,12.229,0,24.459a1.572,1.572,0,0,0,.357.934c2.077,2.439,4.184,4.852,6.27,7.283a.775.775,0,0,0,.888.314,2.81,2.81,0,0,1,3.312,1.962,2.863,2.863,0,0,1-1.652,3.493c-.133.059-.255.143-.382.215Zm2.021-2.894a1.369,1.369,0,0,0-1.381-1.383,1.392,1.392,0,0,0-1.426,1.416,1.426,1.426,0,0,0,1.458,1.4,1.4,1.4,0,0,0,1.349-1.427" transform="translate(975.02 1580.264)" stroke="#000" stroke-width="2"/>
    <path id="Trazado_626073" data-name="Trazado 626073" d="M136.818,131.363a3.292,3.292,0,0,1-1.761-1.715c-.075-.17-.462-.283-.706-.285-3.447-.018-6.895-.012-10.342-.012-1.812,0-3.625-.022-5.436.02a1.638,1.638,0,0,0-1.026.422Q105.8,141.486,94.1,153.214c-.657.658-1.082.771-1.445.385s-.24-.748.406-1.394q11.837-11.835,23.667-23.677a1.968,1.968,0,0,1,1.516-.637c5.348.019,10.7.007,16.044.017.431,0,.726-.053.927-.52a2.733,2.733,0,0,1,2.787-1.61,2.875,2.875,0,0,1,2.541,2.267,2.905,2.905,0,0,1-1.308,3.029,1.975,1.975,0,0,0-.575.426c.2.013.4.038.594.038q2.983,0,5.967,0c.22,0,.489-.054.65.049.246.158.6.454.576.651-.032.261-.35.539-.612.7-.179.11-.473.04-.716.04q-12.7,0-25.391.019a1.611,1.611,0,0,0-1.034.408q-9.563,9.513-19.088,19.065c-.076.077-.146.16-.2.221.249.273.491.518.711.782a2.837,2.837,0,0,1-2.861,4.581,2.852,2.852,0,0,1-2.181-2.464,2.7,2.7,0,0,1,1.735-2.9,4.493,4.493,0,0,0,1.8-1.266q9.636-9.63,19.26-19.271a1.962,1.962,0,0,1,1.519-.623c5.569.017,11.138.01,16.707.009h.7l.032-.177m-37.5,23.928a1.393,1.393,0,0,0-1.356-1.42,1.417,1.417,0,0,0-1.45,1.4,1.432,1.432,0,0,0,1.43,1.426,1.411,1.411,0,0,0,1.377-1.405m38.4-25.25a1.41,1.41,0,0,0,.009-2.82,1.41,1.41,0,0,0-.009,2.82" transform="translate(952.128 1501.237)" stroke="#000" stroke-width="1.5"/>
    <path id="Trazado_626074" data-name="Trazado 626074" d="M30.751,87.09c0-4.176.008-8.351-.01-12.527a1.731,1.731,0,0,1,.56-1.339Q43.031,61.52,54.746,49.8a1.559,1.559,0,0,0,.509-1.213c-.021-4.22-.012-8.44-.01-12.66,0-.243-.067-.536.044-.715a1.161,1.161,0,0,1,.682-.562c.206-.021.51.276.656.505a1.447,1.447,0,0,1,.067.712c0,4.4-.007,8.793.013,13.19a1.9,1.9,0,0,1-.622,1.456q-11.728,11.7-23.446,23.42a1.412,1.412,0,0,0-.448,1.1c.012,8.086,0,16.173.025,24.259a1.764,1.764,0,0,0,.382,1.053c2.073,2.442,4.178,4.856,6.274,7.279.058.067.114.135.173.2.351.393.619.839.121,1.262s-.891.071-1.231-.323c-2.268-2.624-4.547-5.239-6.79-7.884a1.9,1.9,0,0,1-.379-1.135c-.026-4.22-.017-8.44-.017-12.66" transform="translate(997.103 1580.267)" stroke="#000" stroke-width="2"/>
    <path id="Trazado_626075" data-name="Trazado 626075" d="M187.626,202.112a2.932,2.932,0,0,1,1.17,3.312,2.86,2.86,0,0,1-5.581-.763,2.893,2.893,0,0,1,2.243-2.9,2.126,2.126,0,0,0,.946-.523q5.969-5.89,11.9-11.817a1.662,1.662,0,0,1,1.287-.521c5.37.014,10.741,0,16.111.018a.938.938,0,0,0,1.055-.627,2.79,2.79,0,0,1,3.113-1.465,2.886,2.886,0,0,1,2.222,2.85,2.847,2.847,0,0,1-2.249,2.755,2.759,2.759,0,0,1-3.1-1.481.86.86,0,0,0-.936-.6c-5.26.018-10.519.006-15.779.025a1.45,1.45,0,0,0-.934.325q-5.621,5.535-11.2,11.112c-.077.077-.145.162-.27.3m33.008-12.476a1.38,1.38,0,0,0-1.36-1.408,1.4,1.4,0,0,0-1.45,1.393,1.419,1.419,0,0,0,1.434,1.417,1.4,1.4,0,0,0,1.375-1.4m-34.531,13.5a1.448,1.448,0,0,0-1.433,1.363,1.431,1.431,0,0,0,1.38,1.476,1.42,1.42,0,0,0,.053-2.84" transform="translate(876.294 1451.329)" stroke="#000" stroke-width="2"/>
  </g>
</svg>
