<svg xmlns="http://www.w3.org/2000/svg" xmlns:xlink="http://www.w3.org/1999/xlink" width="86" height="86" viewBox="0 0 86 86">
  <defs>
    <clipPath id="clip-path">
      <rect id="Rectángulo_335130" data-name="Rectángulo 335130" width="86" height="86" transform="translate(0 0)"/>
    </clipPath>
  </defs>
  <g id="Grupo_897890" data-name="Grupo 897890" transform="translate(0 0)">
    <g id="Grupo_897889" data-name="Grupo 897889" transform="translate(0 0)" clip-path="url(#clip-path)">
      <path id="Trazado_626055" data-name="Trazado 626055" d="M73.406,12.594A43,43,0,0,0,0,43,42.674,42.674,0,0,0,8.842,69.128v.029h.023a43.7,43.7,0,0,0,3.73,4.249A43,43,0,0,0,73.406,12.594M58.787,78.464V77.036L69.123,66.7a4.523,4.523,0,1,0-3.1-2.807l-10.8,10.8a2.09,2.09,0,0,0-.612,1.477v3.878a38.612,38.612,0,0,1-9.855,1.732v-17.5L62.268,46.762a2.09,2.09,0,0,0,.612-1.477V23.159a4.521,4.521,0,1,0-4.178,0V44.42L41.188,61.933a2.089,2.089,0,0,0-.612,1.477V81.744a38.749,38.749,0,0,1-4.876-.613V45.753L41.052,40.4A4.521,4.521,0,1,0,38.1,37.448l-5.963,5.963a2.089,2.089,0,0,0-.612,1.477v35.2a38.943,38.943,0,0,1-18.5-12.452V55.951l2.726-2.726a4.521,4.521,0,1,0-2.955-2.955L9.454,53.609a2.09,2.09,0,0,0-.612,1.477v6.35A38.584,38.584,0,0,1,4.178,43q0-1.493.112-2.96H15.18a2.089,2.089,0,0,0,1.477-.612L30.845,25.241a4.522,4.522,0,1,0-2.917-2.991L14.315,35.862H4.838A38.955,38.955,0,0,1,27.213,7.536V9.157L17.028,19.342a4.525,4.525,0,1,0,3,2.907L30.779,11.5a2.089,2.089,0,0,0,.612-1.477V5.952A38.613,38.613,0,0,1,41.246,4.22v17.5L23.732,39.238a2.09,2.09,0,0,0-.612,1.477V62.842a4.521,4.521,0,1,0,4.178,0V41.581L44.813,24.067a2.089,2.089,0,0,0,.612-1.477V4.256A38.722,38.722,0,0,1,50.3,4.87V40.247L44.949,45.6A4.521,4.521,0,1,0,47.9,48.553l5.963-5.963a2.089,2.089,0,0,0,.612-1.477V5.911a38.944,38.944,0,0,1,18.5,12.451V30.049l-2.726,2.726a4.521,4.521,0,1,0,2.954,2.954l3.338-3.338a2.089,2.089,0,0,0,.612-1.477v-6.35A38.584,38.584,0,0,1,81.822,43q0,1.493-.112,2.959H70.82a2.089,2.089,0,0,0-1.477.612L55.155,60.759a4.522,4.522,0,1,0,2.917,2.992L71.686,50.138h9.476A38.954,38.954,0,0,1,58.787,78.464M68.873,62.325a1.388,1.388,0,1,1,1.388,1.388,1.389,1.389,0,0,1-1.388-1.388M59.4,19.151a1.387,1.387,0,1,1,1.388,1.387A1.389,1.389,0,0,1,59.4,19.151M41.022,36.089a1.388,1.388,0,1,1,1.388,1.388,1.389,1.389,0,0,1-1.388-1.388M15.717,48.913A1.387,1.387,0,1,1,17.1,50.3a1.389,1.389,0,0,1-1.388-1.387M30.869,20.947a1.387,1.387,0,1,1,1.388,1.387,1.389,1.389,0,0,1-1.388-1.387M17.128,23.675a1.388,1.388,0,1,1-1.388-1.387,1.389,1.389,0,0,1,1.388,1.387M26.6,66.849a1.388,1.388,0,1,1-1.388-1.388A1.389,1.389,0,0,1,26.6,66.849M44.978,49.911a1.388,1.388,0,1,1-1.388-1.388,1.389,1.389,0,0,1,1.388,1.388M70.284,37.088A1.388,1.388,0,1,1,68.9,35.7a1.389,1.389,0,0,1,1.388,1.388M55.131,65.053a1.388,1.388,0,1,1-1.388-1.388,1.389,1.389,0,0,1,1.388,1.388" transform="translate(0 0)"/>
    </g>
  </g>
</svg>
