<svg id="Grupo_897943" data-name="Grupo 897943" xmlns="http://www.w3.org/2000/svg" xmlns:xlink="http://www.w3.org/1999/xlink" width="75.473" height="90.855" viewBox="0 0 75.473 90.855">
  <defs>
    <clipPath id="clip-path">
      <rect id="Rectángulo_335131" data-name="Rectángulo 335131" width="75.473" height="90.855" stroke="#000" stroke-width="2.5"/>
    </clipPath>
  </defs>
  <g id="Grupo_897891" data-name="Grupo 897891" transform="translate(0 0)" clip-path="url(#clip-path)">
    <path id="Trazado_626056" data-name="Trazado 626056" d="M64.6,0a9.863,9.863,0,0,1,2.259,1.342,3.993,3.993,0,0,1-1.511,6.53.774.774,0,0,0-.59.881c.019,2.525-.007,5.051.02,7.575a1.9,1.9,0,0,1-.626,1.479Q59.8,22.116,55.5,26.472a1.914,1.914,0,0,0-.492,1.179c-.053,1.733-.045,3.469-.007,5.2a2.9,2.9,0,0,0,.35,1.2c.383.747.876,1.438,1.244,2.191a.725.725,0,0,0,.967.443c.62-.143,1.251-.24,1.878-.348a3.8,3.8,0,0,1,4.526,3.1q.584,3,1.064,6.02a3.778,3.778,0,0,1-3.242,4.619c-.349.071-.7.129-1.052.2-1.439.279-1.439.279-1.635,1.762-.017.126-.022.255-.045.38-.315,1.739-.335,1.776,1.238,2.622S63,57.009,62.884,58.915a4.874,4.874,0,0,1-.6,1.938c-.929,1.727-1.928,3.418-2.924,5.107a3.8,3.8,0,0,1-5.5,1.482c-.58-.319-1.131-.7-1.731-.973a.9.9,0,0,0-.767.085,23.967,23.967,0,0,0-2.052,1.715.889.889,0,0,0-.2.744c.226.807.574,1.581.8,2.388a3.578,3.578,0,0,1-2.017,4.38c-2.186.9-4.417,1.709-6.67,2.427a3.577,3.577,0,0,1-4.351-2.077c-.4-.905-.715-1.849-1.072-2.783h-3.64c-.293.791-.575,1.581-.877,2.363a3.755,3.755,0,0,1-5.051,2.362q-2.85-.989-5.673-2.054A3.8,3.8,0,0,1,18.2,70.889c.216-.626.415-1.26.681-1.865.175-.4.03-.59-.267-.823-.662-.518-1.316-1.051-1.931-1.623a.653.653,0,0,0-.927-.1,21.1,21.1,0,0,1-2.344,1.281A3.537,3.537,0,0,1,9,66.522c-1.281-2.02-2.487-4.1-3.6-6.214a3.576,3.576,0,0,1,1.237-4.6,20.917,20.917,0,0,1,2.1-1.254.72.72,0,0,0,.43-.912c-.181-.845-.281-1.709-.473-2.551a.822.822,0,0,0-.5-.509c-.663-.175-1.349-.261-2.023-.4a3.8,3.8,0,0,1-3.233-4.693q.492-2.939,1.045-5.869A3.8,3.8,0,0,1,8.6,36.364c.777.135,1.688.552,2.3.288.587-.253.822-1.254,1.289-1.868A4,4,0,0,0,13,32.011c-.072-1.45.017-2.908-.041-4.36a1.934,1.934,0,0,0-.492-1.18q-4.291-4.365-8.649-8.665a1.9,1.9,0,0,1-.623-1.478c.027-2.55.009-5.1.014-7.652,0-.347-.019-.586-.441-.751A4,4,0,0,1,.006,3.87,4.078,4.078,0,0,1,3.1.132,2.158,2.158,0,0,0,3.369,0H4.9a4.677,4.677,0,0,0,.462.226,4.041,4.041,0,0,1,2.767,3.75A3.966,3.966,0,0,1,5.56,7.854a.824.824,0,0,0-.637.932q.042,3.443,0,6.888a1.611,1.611,0,0,0,.518,1.275c2.864,2.836,5.7,5.7,8.568,8.532a2.193,2.193,0,0,1,.714,1.751c-.041,2.04.006,4.082-.031,6.122a2.986,2.986,0,0,1-.358,1.282c-.58,1.1-1.246,2.161-1.828,3.264a1.125,1.125,0,0,1-1.354.693c-1-.193-2.006-.367-3.014-.51a2.013,2.013,0,0,0-2.415,1.684q-.6,3.115-1.1,6.248a2.025,2.025,0,0,0,1.792,2.342c.952.177,1.906.346,2.863.487a1.182,1.182,0,0,1,1.108,1.145q.307,2.076.721,4.135a1.084,1.084,0,0,1-.606,1.322q-1.3.724-2.579,1.5A2.057,2.057,0,0,0,7.137,59.9q1.5,2.664,3.057,5.3a2.018,2.018,0,0,0,2.954.767c.871-.479,1.728-.983,2.582-1.491a1.1,1.1,0,0,1,1.452.157c1.072.94,2.169,1.854,3.279,2.749a1.082,1.082,0,0,1,.376,1.405c-.366.923-.7,1.86-1.017,2.8a2.026,2.026,0,0,0,1.289,2.77q2.861,1.074,5.746,2.082a2.051,2.051,0,0,0,2.768-1.3c.349-.9.685-1.811.989-2.729a1.17,1.17,0,0,1,1.312-.9c1.374.041,2.751.036,4.125,0a1.141,1.141,0,0,1,1.277.837q.468,1.373.983,2.731a2.083,2.083,0,0,0,2.881,1.334q2.808-1,5.6-2.034A2.043,2.043,0,0,0,48.107,71.5c-.325-.938-.656-1.875-1.013-2.8a1.011,1.011,0,0,1,.36-1.277c1.141-.938,2.277-1.884,3.4-2.848a1.031,1.031,0,0,1,1.326-.127c.881.512,1.758,1.032,2.651,1.524a2.015,2.015,0,0,0,2.947-.786q1.558-2.631,3.055-5.3a2.009,2.009,0,0,0-.8-2.945q-1.242-.752-2.516-1.452a1.147,1.147,0,0,1-.647-1.44c.29-1.316.509-2.65.689-3.986a1.239,1.239,0,0,1,1.2-1.23c.908-.121,1.809-.3,2.712-.464A2.108,2.108,0,0,0,63.286,45.7q-.5-2.822-.991-5.646A2.107,2.107,0,0,0,59.659,38.1c-.958.14-1.912.307-2.863.489a1.077,1.077,0,0,1-1.307-.634c-.621-1.169-1.315-2.3-1.951-3.459a2.068,2.068,0,0,1-.275-.924c-.023-2.245-.039-4.49.013-6.734a1.927,1.927,0,0,1,.542-1.177Q58.114,21.3,62.472,17a1.681,1.681,0,0,0,.571-1.33c-.032-2.321,0-4.643-.032-6.964a.964.964,0,0,0-.409-.737A4.1,4.1,0,0,1,62.82.154L63.01.088l.2-.088,1.856.154M4.043,1.769A2.329,2.329,0,0,0,1.75,4.135a2.361,2.361,0,0,0,2.315,2.28A2.384,2.384,0,0,0,6.4,4.076,2.349,2.349,0,0,0,4.043,1.769M66.217,4.1a2.326,2.326,0,0,0-4.651-.067,2.326,2.326,0,1,0,4.651.067" transform="translate(3.328 6.657)" stroke="#000" stroke-width="2.5"/>
    <path id="Trazado_626057" data-name="Trazado 626057" d="M86.6,83.615a14.882,14.882,0,0,1-14.92-12.544,14.729,14.729,0,0,1,2.656-10.932,2.07,2.07,0,0,0,.362-1.113q.035-7.844,0-15.688a1.7,1.7,0,0,0-.436-1.053q-1.681-1.779-3.457-3.468a1.787,1.787,0,0,1-.65-1.617c.019-.151-.015-.308.006-.458a1.641,1.641,0,0,0-1.126-2.011,3.845,3.845,0,0,1-1.919-4.615,4.055,4.055,0,0,1,4.158-2.937,4.071,4.071,0,0,1,1.467,7.762c-.308.148-.8.415-.8.615.022.747-.358,1.567.338,2.24,1.228,1.188,2.45,2.386,3.611,3.639a2.164,2.164,0,0,1,.544,1.33q.055,8.379,0,16.759a2.483,2.483,0,0,1-.48,1.379,12.992,12.992,0,1,0,23.185,6.464,13.608,13.608,0,0,0-2.588-6.447,2.779,2.779,0,0,1-.5-1.524c-.035-5.51-.013-11.02-.034-16.53a1.956,1.956,0,0,1,.645-1.546c1.177-1.13,2.316-2.3,3.469-3.457a3.384,3.384,0,0,0,.422-2.5c-.1-.165-.362-.247-.565-.331a4.07,4.07,0,1,1,5.49-4.5A4,4,0,0,1,103,34.98c-.561.217-.774.488-.677,1.048a3.611,3.611,0,0,1-1.487,3.645,25.939,25.939,0,0,0-2.6,2.592,1.726,1.726,0,0,0-.454,1.046q-.043,7.882,0,15.764a1.919,1.919,0,0,0,.346,1.042,14.756,14.756,0,0,1-7.359,22.77,11.131,11.131,0,0,1-1.775.45c-.9.143-1.821.214-2.393.278M73.349,31.269a2.326,2.326,0,1,0-2.378,2.3,2.379,2.379,0,0,0,2.378-2.3m28.161-2.36a2.331,2.331,0,1,0,2.264,2.4,2.376,2.376,0,0,0-2.264-2.4" transform="translate(-48.926 -14.556)" stroke="#000" stroke-width="2.5"/>
    <path id="Trazado_626058" data-name="Trazado 626058" d="M141.29,93.091q0,6.044,0,12.089c0,.255.08.571-.039.751-.214.323-.549.778-.838.782s-.649-.435-.858-.758c-.13-.2-.045-.546-.045-.826q0-12.165.012-24.33a.982.982,0,0,0-.723-1.106,3.986,3.986,0,0,1-2.367-4.626,4.071,4.071,0,0,1,7.952.054,3.975,3.975,0,0,1-2.43,4.591.916.916,0,0,0-.674,1.062c.019,4.106.011,8.212.011,12.318m1.421-17.084a2.308,2.308,0,0,0-4.616-.1,2.309,2.309,0,1,0,4.616.1" transform="translate(-103.092 -49.467)" stroke="#000" stroke-width="2.5"/>
  </g>
</svg>
