<svg xmlns="http://www.w3.org/2000/svg" xmlns:xlink="http://www.w3.org/1999/xlink" width="144" height="144" viewBox="0 0 144 144">
  <defs>
    <filter id="Trazado_626078" x="0" y="0" width="144" height="144" filterUnits="userSpaceOnUse">
      <feOffset dy="3" input="SourceAlpha"/>
      <feGaussianBlur stdDeviation="3" result="blur"/>
      <feFlood flood-opacity="0.161"/>
      <feComposite operator="in" in2="blur"/>
      <feComposite in="SourceGraphic"/>
    </filter>
    <clipPath id="clip-path">
      <rect id="Rectángulo_335136" data-name="Rectángulo 335136" width="115.676" height="115.672" fill="#ebebeb"/>
    </clipPath>
  </defs>
  <g id="Grupo_901993" data-name="Grupo 901993" transform="translate(-256 -2104)">
    <g transform="matrix(1, 0, 0, 1, 256, 2104)" filter="url(#Trazado_626078)">
      <path id="Trazado_626078-2" data-name="Trazado 626078" d="M63,0A63,63,0,1,1,0,63,63,63,0,0,1,63,0Z" transform="translate(9 6)" fill="#f5f5f5"/>
    </g>
    <g id="Grupo_897956" data-name="Grupo 897956" transform="translate(269.693 2114.969)">
      <g id="Grupo_897955" data-name="Grupo 897955" transform="translate(0 0)" clip-path="url(#clip-path)">
        <path id="Trazado_626076" data-name="Trazado 626076" d="M53,0h9.638a1.929,1.929,0,0,0,.473.207c2.374.345,4.78.531,7.116,1.043a57.908,57.908,0,0,1,16.509,6.38,59.4,59.4,0,0,1,11.693,8.862,64.542,64.542,0,0,1,4.5,5.053,51.779,51.779,0,0,1,5.957,8.972,57.668,57.668,0,0,1,4.684,11.641,51.555,51.555,0,0,1,2.007,11.727,60.571,60.571,0,0,1-.9,14.941,57.417,57.417,0,0,1-12.967,26.761,59.378,59.378,0,0,1-8.094,7.792A57.3,57.3,0,0,1,80.8,111a56.771,56.771,0,0,1-18.921,4.585,64.646,64.646,0,0,1-9.111-.184,59.374,59.374,0,0,1-7.86-1.147,55.1,55.1,0,0,1-18.7-7.9,47.909,47.909,0,0,1-10.492-8.868c-1.947-2.288-3.892-4.589-5.67-7.008A49.324,49.324,0,0,1,4.052,79.325,55.045,55.045,0,0,1,.4,65.005c-.088-.792-.263-1.576-.4-2.362V53.005a1.291,1.291,0,0,0,.2-.377c.4-2.586.644-5.2,1.2-7.755a55.172,55.172,0,0,1,7.647-18.3,49.2,49.2,0,0,1,9.337-11.082c2.214-1.883,4.457-3.743,6.8-5.462a49.4,49.4,0,0,1,9.752-5.4A55.412,55.412,0,0,1,50.643.4C51.435.307,52.217.136,53,0m28.88,72.676V68.981H80.7c-9.989,0-19.978-.012-29.969.018a2.459,2.459,0,0,1-2.1-.854A27.376,27.376,0,0,0,46.6,66.094a2.23,2.23,0,0,0-3.27-.078c-.888.786-1.694,1.666-2.566,2.472a1.681,1.681,0,0,1-.886.469c-.754.068-1.52.022-2.334.022V59.83a4.852,4.852,0,0,1,.513-.056q15.7-.006,31.413.014a1.617,1.617,0,0,1,.99.423c.828.76,1.588,1.59,2.4,2.37a2.207,2.207,0,0,0,3.4.038,8.855,8.855,0,0,0,1.221-1.225,3.71,3.71,0,0,1,3.884-1.634,1.673,1.673,0,0,0,.537-.086V55.948a14.309,14.309,0,0,0-1.552.01,2.229,2.229,0,0,1-2.111-.834,22.932,22.932,0,0,0-2.039-2.045,2.2,2.2,0,0,0-3.328.078c-.716.69-1.45,1.369-2.1,2.117a2,2,0,0,1-1.688.686q-15.226-.024-30.452-.014c-.341,0-.684-.028-1.067-.044V46.8h1.109q4.432,0,8.866,0c1.315,0,2.767-.313,3.908.142,1.1.437,1.879,1.68,2.8,2.57a2.282,2.282,0,0,0,3.607,0c.648-.622,1.3-1.241,1.9-1.915a2.3,2.3,0,0,1,1.927-.82c6.36.034,12.72.018,19.08.018h1.137V43.126H80.7c-6.36,0-12.72.014-19.08-.028a2.557,2.557,0,0,1-1.49-.608c-.834-.7-1.548-1.534-2.342-2.282a2.313,2.313,0,0,0-3.553.05c-.758.742-1.458,1.55-2.268,2.224a2.634,2.634,0,0,1-1.506.616c-3.982.05-7.966.028-11.948.024-.307,0-.614-.036-1.043-.064V33.789H33.787V81.875h3.747v-9.1c1.782-.341,3.23-.142,4.283,1.373a10.15,10.15,0,0,0,1.418,1.436,2.184,2.184,0,0,0,3.254.056c.822-.766,1.654-1.522,2.42-2.34a1.985,1.985,0,0,1,1.61-.64q15.031.027,30.065.012Z" transform="translate(0 0)" fill="#969faa"/>
        <path id="Trazado_626077" data-name="Trazado 626077" d="M65.031,55.824h-1.3q-15.034,0-30.065-.012a1.985,1.985,0,0,0-1.61.64c-.766.818-1.6,1.574-2.42,2.34a2.184,2.184,0,0,1-3.254-.056A10.15,10.15,0,0,1,24.966,57.3c-1.053-1.514-2.5-1.714-4.283-1.373v9.1H16.936V16.937h3.683v9.269c.429.028.736.064,1.043.064,3.982,0,7.966.026,11.948-.024a2.634,2.634,0,0,0,1.506-.616c.81-.674,1.51-1.482,2.268-2.224a2.313,2.313,0,0,1,3.553-.05c.794.748,1.508,1.586,2.342,2.282a2.557,2.557,0,0,0,1.49.608c6.36.042,12.72.028,19.08.028h1.181V29.95H63.894c-6.36,0-12.72.016-19.08-.018a2.3,2.3,0,0,0-1.927.82c-.593.674-1.249,1.293-1.9,1.915a2.282,2.282,0,0,1-3.607,0c-.92-.89-1.7-2.133-2.8-2.57-1.141-.455-2.594-.138-3.908-.142q-4.435-.009-8.866,0H20.7v9.1c.383.016.726.044,1.067.044q15.226,0,30.452.014a2,2,0,0,0,1.688-.686c.654-.748,1.389-1.426,2.1-2.117a2.2,2.2,0,0,1,3.328-.078,22.932,22.932,0,0,1,2.039,2.045,2.229,2.229,0,0,0,2.111.834,14.308,14.308,0,0,1,1.552-.01v3.727a1.673,1.673,0,0,1-.537.086,3.71,3.71,0,0,0-3.884,1.634A8.855,8.855,0,0,1,59.4,45.767a2.207,2.207,0,0,1-3.4-.038c-.808-.78-1.568-1.61-2.4-2.37a1.617,1.617,0,0,0-.99-.423Q36.909,42.9,21.2,42.922a4.851,4.851,0,0,0-.513.056v9.149c.814,0,1.58.046,2.334-.022a1.681,1.681,0,0,0,.886-.469c.872-.806,1.678-1.686,2.566-2.472a2.23,2.23,0,0,1,3.27.078,27.375,27.375,0,0,1,2.033,2.051,2.459,2.459,0,0,0,2.1.854c9.991-.03,19.98-.018,29.969-.018h1.183Z" transform="translate(16.851 16.853)" fill="#fc6e51" stroke="#000" stroke-width="1.5"/>
      </g>
    </g>
  </g>
</svg>
