<svg xmlns="http://www.w3.org/2000/svg" xmlns:xlink="http://www.w3.org/1999/xlink" width="550" height="409" viewBox="0 0 550 409">
  <defs>
    <clipPath id="clip-path">
      <rect id="Rect치ngulo_336743" data-name="Rect치ngulo 336743" width="550" height="409" transform="translate(864.333 130)" fill="none"/>
    </clipPath>
    <clipPath id="clip-path-2">
      <rect id="Rect치ngulo_336732" data-name="Rect치ngulo 336732" width="399" height="409" transform="translate(-11789 -12218)" fill="#fff" opacity="0.33"/>
    </clipPath>
  </defs>
  <g id="Enmascarar_grupo_901922" data-name="Enmascarar grupo 901922" transform="translate(-864.333 -130)" clip-path="url(#clip-path)">
    <g id="Grupo_901961" data-name="Grupo 901961">
      <g id="Grupo_901957" data-name="Grupo 901957">
        <g id="Grupo_85218" data-name="Grupo 85218" transform="translate(1304.353 265.22)" opacity="0.92">
          <g id="Grupo_85217" data-name="Grupo 85217" transform="translate(0)">
            <g id="Grupo_85216" data-name="Grupo 85216">
              <g id="Grupo_85215" data-name="Grupo 85215">
                <path id="Trazado_147498" data-name="Trazado 147498" d="M430.571,181.061a17.118,17.118,0,0,1,4.323-1.424l1.235-4.035,6.963.519.625,4.174a17.063,17.063,0,0,1,4.065,2.049l3.726-1.979,4.557,5.29-2.508,3.391a17.11,17.11,0,0,1,1.423,4.324l4.035,1.236-.518,6.963-4.174.624a17.11,17.11,0,0,1-2.048,4.065l1.979,3.726-5.29,4.557-3.391-2.509a17.087,17.087,0,0,1-4.324,1.423l-1.235,4.036-6.963-.519-.625-4.174a17.109,17.109,0,0,1-4.065-2.048l-3.726,1.979-4.557-5.291,2.509-3.391a17.077,17.077,0,0,1-1.424-4.324l-4.035-1.235.518-6.963,4.174-.625a17.126,17.126,0,0,1,2.048-4.065l-1.979-3.726,5.29-4.557,3.392,2.509Zm2.852,9.6a7.491,7.491,0,1,0,10.564.787A7.491,7.491,0,0,0,433.424,190.663Z" transform="translate(-417.128 -175.602)" fill="#f74ae2"/>
              </g>
            </g>
          </g>
        </g>
        <g id="Grupo_901300" data-name="Grupo 901300" transform="translate(12770.666 12353)" opacity="0.72">
          <g id="Grupo_85214" data-name="Grupo 85214" transform="translate(-11667.531 -12004.95)">
            <g id="Grupo_85213" data-name="Grupo 85213">
              <g id="Grupo_85212" data-name="Grupo 85212">
                <g id="Grupo_85211" data-name="Grupo 85211">
                  <path id="Trazado_147497" data-name="Trazado 147497" d="M208.912,274.336a20.291,20.291,0,0,1,5.122-1.687l1.463-4.78,8.248.615.74,4.944a20.269,20.269,0,0,1,4.816,2.427l4.413-2.345,5.4,6.268-2.972,4.017a20.228,20.228,0,0,1,1.686,5.122l4.78,1.463-.614,8.249-4.945.74a20.28,20.28,0,0,1-2.427,4.815l2.345,4.414L230.7,314l-4.017-2.972a20.24,20.24,0,0,1-5.122,1.686l-1.464,4.781-8.248-.615-.74-4.945a20.245,20.245,0,0,1-4.815-2.427l-4.414,2.345-5.4-6.267,2.972-4.017a20.231,20.231,0,0,1-1.687-5.122l-4.78-1.463.614-8.249,4.945-.74a20.28,20.28,0,0,1,2.427-4.815l-2.344-4.414,6.266-5.4,4.018,2.972Zm3.379,11.376a8.873,8.873,0,1,0,12.514.931A8.873,8.873,0,0,0,212.291,285.712Z" transform="translate(-192.986 -267.869)" fill="#ffe991"/>
                </g>
              </g>
            </g>
          </g>
          <g id="Grupo_85222" data-name="Grupo 85222" transform="translate(-11613.232 -11973.719)">
            <g id="Grupo_85221" data-name="Grupo 85221" transform="translate(0)">
              <g id="Grupo_85220" data-name="Grupo 85220">
                <g id="Grupo_85219" data-name="Grupo 85219">
                  <path id="Trazado_147499" data-name="Trazado 147499" d="M263.722,306.821a13.022,13.022,0,0,1,3.3-1.085l.943-3.077,5.309.4.476,3.182a13.018,13.018,0,0,1,3.1,1.562l2.84-1.51,3.474,4.034-1.913,2.585a13.036,13.036,0,0,1,1.085,3.3l3.076.942-.4,5.309-3.182.476a13.044,13.044,0,0,1-1.561,3.1l1.508,2.841-4.033,3.474-2.585-1.913a13.029,13.029,0,0,1-3.3,1.085l-.943,3.077-5.308-.4-.477-3.182a13.079,13.079,0,0,1-3.1-1.561l-2.841,1.509-3.474-4.034,1.913-2.585a13.028,13.028,0,0,1-1.085-3.3l-3.077-.943.4-5.308,3.182-.477a13.048,13.048,0,0,1,1.562-3.1l-1.509-2.841,4.033-3.474,2.586,1.913Zm2.174,7.322a5.711,5.711,0,1,0,8.054.6A5.711,5.711,0,0,0,265.9,314.143Z" transform="translate(-253.471 -302.658)" fill="#17efc8"/>
                </g>
              </g>
            </g>
          </g>
          <g id="Grupo_85226" data-name="Grupo 85226" transform="translate(-11820 -12099.076)">
            <g id="Grupo_85225" data-name="Grupo 85225">
              <g id="Grupo_85224" data-name="Grupo 85224">
                <g id="Grupo_85223" data-name="Grupo 85223">
                  <path id="Trazado_147500" data-name="Trazado 147500" d="M42.416,169.486a20.247,20.247,0,0,1,5.122-1.686L49,163.019l8.249.615.739,4.944A20.251,20.251,0,0,1,62.8,171l4.414-2.345,5.4,6.268-2.972,4.017a20.229,20.229,0,0,1,1.686,5.122l4.78,1.463-.614,8.249-4.945.74a20.31,20.31,0,0,1-2.426,4.815l2.344,4.414-6.267,5.4-4.017-2.972a20.228,20.228,0,0,1-5.122,1.686L53.6,212.642l-8.248-.614-.74-4.946a20.293,20.293,0,0,1-4.815-2.426L35.382,207l-5.4-6.267,2.972-4.017a20.219,20.219,0,0,1-1.687-5.122l-4.78-1.463.614-8.249,4.946-.74a20.277,20.277,0,0,1,2.426-4.815l-2.344-4.413,6.267-5.4,4.018,2.972Zm3.378,11.376a8.873,8.873,0,1,0,12.514.931A8.873,8.873,0,0,0,45.794,180.862Z" transform="translate(-26.489 -163.019)" fill="#66fdde"/>
                </g>
              </g>
            </g>
          </g>
        </g>
      </g>
    </g>
  </g>
</svg>
