<svg xmlns="http://www.w3.org/2000/svg" width="391.306" height="287.766" viewBox="0 0 391.306 287.766">
  <g id="Grupo_901993" data-name="Grupo 901993" transform="translate(-956.433 -235.029)">
    <g id="Floor" transform="translate(963.435 522.327)">
      <g id="Grupo_85229" data-name="Grupo 85229">
        <g id="Grupo_85228" data-name="Grupo 85228">
          <g id="Grupo_85227" data-name="Grupo 85227">
            <path id="Trazado_147501" data-name="Trazado 147501" d="M419.136,462.234c0,.129-85.468.234-190.873.234-105.442,0-190.891-.105-190.891-.234S122.82,462,228.262,462C333.668,462,419.136,462.106,419.136,462.234Z" transform="translate(-37.371 -462.001)" fill="#263238"/>
          </g>
        </g>
      </g>
    </g>
    <g id="Grupo_901958" data-name="Grupo 901958">
      <g id="Grupo_85210" data-name="Grupo 85210" transform="translate(956.433 476.356)">
        <g id="Grupo_85209" data-name="Grupo 85209" transform="translate(0)">
          <g id="Grupo_85180" data-name="Grupo 85180" transform="translate(4.659 10.095)">
            <g id="Grupo_85179" data-name="Grupo 85179">
              <g id="Grupo_85178" data-name="Grupo 85178">
                <g id="Grupo_85177" data-name="Grupo 85177">
                  <g id="Grupo_85176" data-name="Grupo 85176">
                    <g id="Grupo_85175" data-name="Grupo 85175">
                      <g id="Grupo_85174" data-name="Grupo 85174">
                        <path id="Trazado_147494" data-name="Trazado 147494" d="M34.761,422.038v36.11H145.808v-36.11Z" transform="translate(-34.761 -422.038)" fill="#f5f5f5"/>
                      </g>
                    </g>
                  </g>
                </g>
              </g>
            </g>
          </g>
          <g id="Grupo_85187" data-name="Grupo 85187" transform="translate(0)">
            <g id="Grupo_85186" data-name="Grupo 85186">
              <g id="Grupo_85185" data-name="Grupo 85185">
                <g id="Grupo_85184" data-name="Grupo 85184">
                  <g id="Grupo_85183" data-name="Grupo 85183">
                    <g id="Grupo_85182" data-name="Grupo 85182">
                      <g id="Grupo_85181" data-name="Grupo 85181">
                        <path id="Trazado_147495" data-name="Trazado 147495" d="M29.57,410.792v10.1H149.16v-10.1H29.57Z" transform="translate(-29.57 -410.792)" fill="#ebebeb"/>
                      </g>
                    </g>
                  </g>
                </g>
              </g>
            </g>
          </g>
          <g id="Grupo_85194" data-name="Grupo 85194" transform="translate(57.465)">
            <g id="Grupo_85193" data-name="Grupo 85193">
              <g id="Grupo_85192" data-name="Grupo 85192">
                <g id="Grupo_85191" data-name="Grupo 85191">
                  <g id="Grupo_85190" data-name="Grupo 85190">
                    <g id="Grupo_85189" data-name="Grupo 85189">
                      <g id="Grupo_85188" data-name="Grupo 85188">
                        <path id="Trazado_147496" data-name="Trazado 147496" d="M95.912,457h55.912v-36.11h3.883v-10.1H93.582v9.161Z" transform="translate(-93.582 -410.792)" fill="#ebebeb"/>
                      </g>
                    </g>
                  </g>
                </g>
              </g>
            </g>
          </g>
          <g id="Grupo_85201" data-name="Grupo 85201" transform="translate(20.19 15.918)">
            <g id="Grupo_85200" data-name="Grupo 85200">
              <g id="Grupo_85199" data-name="Grupo 85199">
                <g id="Grupo_85198" data-name="Grupo 85198">
                  <g id="Grupo_85197" data-name="Grupo 85197">
                    <g id="Grupo_85196" data-name="Grupo 85196">
                      <g id="Grupo_85195" data-name="Grupo 85195">
                        <rect id="Rectángulo_31829" data-name="Rectángulo 31829" width="22.52" height="5.435" fill="#e0e0e0"/>
                      </g>
                    </g>
                  </g>
                </g>
              </g>
            </g>
          </g>
          <g id="Grupo_85208" data-name="Grupo 85208" transform="translate(17.292 28.149)">
            <g id="Grupo_85207" data-name="Grupo 85207">
              <g id="Grupo_85206" data-name="Grupo 85206">
                <g id="Grupo_85205" data-name="Grupo 85205">
                  <g id="Grupo_85204" data-name="Grupo 85204">
                    <g id="Grupo_85203" data-name="Grupo 85203">
                      <g id="Grupo_85202" data-name="Grupo 85202">
                        <rect id="Rectángulo_31830" data-name="Rectángulo 31830" width="28.917" height="11.478" fill="#fff"/>
                      </g>
                    </g>
                  </g>
                </g>
              </g>
            </g>
          </g>
        </g>
      </g>
      <g id="Plant" transform="translate(1008.948 406.251)">
        <g id="Grupo_85285" data-name="Grupo 85285">
          <g id="Grupo_85274" data-name="Grupo 85274">
            <g id="Grupo_85232" data-name="Grupo 85232" transform="translate(36.021 20.551)">
              <g id="Grupo_85231" data-name="Grupo 85231">
                <g id="Grupo_85230" data-name="Grupo 85230">
                  <path id="Trazado_147502" data-name="Trazado 147502" d="M75.468,411.488s18.271-21.028,25.166-42.058,3.62-18.617,3.62-18.617-9.308,20.428-16.375,30.3-19.65,24.347-19.65,24.347Z" transform="translate(-68.228 -350.73)" fill="#00cca7"/>
                </g>
              </g>
            </g>
            <g id="Grupo_85235" data-name="Grupo 85235" transform="translate(30.564 23.366)">
              <g id="Grupo_85234" data-name="Grupo 85234" transform="translate(0)">
                <g id="Grupo_85233" data-name="Grupo 85233">
                  <path id="Trazado_147503" data-name="Trazado 147503" d="M113.632,354.554a1.065,1.065,0,0,1,1.982.677c-1.114,7.386-3.522,24.721-3.427,35.963.123,14.605,0,20.25,0,20.25h-7.6s1.35-30.192,3.068-39.4A63.217,63.217,0,0,1,113.632,354.554Z" transform="translate(-104.578 -354.009)" fill="#00cca7"/>
                </g>
              </g>
            </g>
            <g id="Grupo_85238" data-name="Grupo 85238" transform="translate(21.773 20.762)">
              <g id="Grupo_85237" data-name="Grupo 85237" transform="translate(0)">
                <g id="Grupo_85236" data-name="Grupo 85236">
                  <path id="Trazado_147504" data-name="Trazado 147504" d="M125.43,408.562a80.55,80.55,0,0,1-6.259-22.705c-.626-5.376.491-12.641,2.153-22.337a60.153,60.153,0,0,0,.961-10.748,1.814,1.814,0,0,0-3.406-.851c-.918,1.637-3.574,7.232-4.249,10.739-1.841,9.573-3.927,14.36-2.332,23.442s7.487,23.073,7.487,23.073Z" transform="translate(-111.731 -350.976)" fill="#00cca7"/>
                </g>
              </g>
            </g>
            <g id="Grupo_85241" data-name="Grupo 85241" transform="translate(0 14.114)">
              <g id="Grupo_85240" data-name="Grupo 85240" transform="translate(7.995 19.876)">
                <g id="Grupo_85239" data-name="Grupo 85239">
                  <path id="Trazado_147505" data-name="Trazado 147505" d="M140.337,382.848s-14.457-28.043-15.459-32.2-4.409-13.747-4.81-13.2-1,5.607,1.6,11.4S135.4,383.7,135.4,383.7h4.936" transform="translate(-119.709 -337.417)" fill="#00cca7"/>
                </g>
              </g>
            </g>
            <g id="Grupo_85245" data-name="Grupo 85245" transform="translate(37.67 21.122)">
              <g id="Grupo_85244" data-name="Grupo 85244">
                <g id="Grupo_85243" data-name="Grupo 85243">
                  <g id="Grupo_85242" data-name="Grupo 85242">
                    <path id="Trazado_147506" data-name="Trazado 147506" d="M68.514,407.306a4.066,4.066,0,0,0,.562-.385c.355-.27.9-.65,1.554-1.187a71.109,71.109,0,0,0,5.391-4.76,90.467,90.467,0,0,0,14.554-18.679,122.388,122.388,0,0,0,9.935-21.52c1.009-2.863,1.745-5.207,2.223-6.835.245-.812.414-1.449.532-1.88a3.984,3.984,0,0,0,.155-.664,4.029,4.029,0,0,0-.238.639q-.228.692-.61,1.855c-.525,1.612-1.3,3.937-2.348,6.782a130.147,130.147,0,0,1-10.018,21.4,94.431,94.431,0,0,1-14.4,18.683c-2.147,2.134-3.985,3.76-5.285,4.846-.64.556-1.163.956-1.5,1.247A4.121,4.121,0,0,0,68.514,407.306Z" transform="translate(-68.513 -351.395)" fill="#263238"/>
                  </g>
                </g>
              </g>
            </g>
            <g id="Grupo_85249" data-name="Grupo 85249" transform="translate(35.456 24.353)">
              <g id="Grupo_85248" data-name="Grupo 85248" transform="translate(0)">
                <g id="Grupo_85247" data-name="Grupo 85247">
                  <g id="Grupo_85246" data-name="Grupo 85246">
                    <path id="Trazado_147507" data-name="Trazado 147507" d="M105.749,387.157a7.191,7.191,0,0,0,.18-1.266c.1-.892.22-2.056.37-3.456.318-2.917.813-6.939,1.521-11.357s1.5-8.394,2.115-11.264c.3-1.376.543-2.52.732-3.4a7.334,7.334,0,0,0,.226-1.258,7.211,7.211,0,0,0-.388,1.217c-.224.791-.521,1.942-.865,3.371-.689,2.856-1.528,6.833-2.242,11.263s-1.16,8.467-1.4,11.4c-.121,1.465-.2,2.651-.234,3.473A7.428,7.428,0,0,0,105.749,387.157Z" transform="translate(-105.731 -355.159)" fill="#263238"/>
                  </g>
                </g>
              </g>
            </g>
            <g id="Grupo_85253" data-name="Grupo 85253" transform="translate(25.874 21.369)">
              <g id="Grupo_85252" data-name="Grupo 85252" transform="translate(0)">
                <g id="Grupo_85251" data-name="Grupo 85251">
                  <g id="Grupo_85250" data-name="Grupo 85250">
                    <path id="Trazado_147508" data-name="Trazado 147508" d="M119.716,351.683a3.151,3.151,0,0,0-.236.548c-.153.405-.352.938-.6,1.6-.265.695-.57,1.551-.86,2.567s-.685,2.153-.975,3.452l-.5,2.027c-.168.707-.288,1.453-.441,2.219-.328,1.531-.531,3.191-.774,4.933a73.656,73.656,0,0,0,.816,22.789c.367,1.72.689,3.361,1.125,4.865.209.754.38,1.49.6,2.182l.64,1.987c.383,1.274.85,2.384,1.22,3.373s.728,1.825,1.042,2.5l.714,1.555a3.061,3.061,0,0,0,.276.529,3.132,3.132,0,0,0-.2-.565l-.64-1.584c-.29-.682-.632-1.521-.972-2.518s-.793-2.106-1.156-3.381l-.611-1.986c-.209-.691-.373-1.426-.573-2.178-.42-1.5-.726-3.136-1.081-4.849a76.131,76.131,0,0,1-.812-22.67c.231-1.734.419-3.388.731-4.914.145-.764.256-1.509.415-2.213s.319-1.379.468-2.024c.27-1.3.635-2.44.911-3.456s.549-1.88.789-2.582c.217-.674.392-1.214.525-1.625A3,3,0,0,0,119.716,351.683Z" transform="translate(-114.815 -351.683)" fill="#263238"/>
                  </g>
                </g>
              </g>
            </g>
            <g id="Grupo_85257" data-name="Grupo 85257" transform="translate(0.725 10.021)">
              <g id="Grupo_85256" data-name="Grupo 85256">
                <g id="Grupo_85255" data-name="Grupo 85255" transform="translate(7.654 21.924)">
                  <g id="Grupo_85254" data-name="Grupo 85254">
                    <path id="Trazado_147509" data-name="Trazado 147509" d="M123.53,338.466a.409.409,0,0,0,.01.118l.054.341c.054.3.122.742.241,1.307.236,1.13.629,2.755,1.24,4.727s1.443,4.286,2.433,6.827,2.132,5.312,3.217,8.26c1.1,2.944,1.95,5.817,2.747,8.424s1.54,4.951,2.264,6.884a44.011,44.011,0,0,0,1.929,4.491c.25.52.475.908.621,1.175l.17.3c.04.067.062.1.066.1a.414.414,0,0,0-.043-.11l-.148-.312c-.13-.275-.34-.669-.575-1.2-.492-1.041-1.154-2.571-1.848-4.509s-1.43-4.278-2.207-6.891-1.628-5.492-2.733-8.444c-1.087-2.955-2.24-5.723-3.237-8.258s-1.852-4.834-2.481-6.794-1.051-3.573-1.317-4.694c-.134-.56-.218-1-.289-1.295l-.079-.336A.388.388,0,0,0,123.53,338.466Z" transform="translate(-122.543 -332.825)" fill="#263238"/>
                  </g>
                </g>
              </g>
            </g>
            <g id="Grupo_85273" data-name="Grupo 85273" transform="translate(31.016)">
              <g id="Grupo_85260" data-name="Grupo 85260" transform="translate(0.009)">
                <g id="Grupo_85259" data-name="Grupo 85259">
                  <g id="Grupo_85258" data-name="Grupo 85258">
                    <path id="Trazado_147510" data-name="Trazado 147510" d="M108.3,327.293a1.727,1.727,0,0,1,2.844,1.761,49.305,49.305,0,0,1-2.521,6.482c-2.758,5.861-10.859,26.89-14.652,38.439s-9.135,33.095-9.135,33.095l-8.1-1.314s7.409-35.4,14.648-48.157C97.208,347.351,103.024,332.54,108.3,327.293Z" transform="translate(-76.743 -326.794)" fill="#00cca7"/>
                  </g>
                </g>
              </g>
              <g id="Grupo_85264" data-name="Grupo 85264" transform="translate(8.1 54.403)">
                <g id="Grupo_85263" data-name="Grupo 85263">
                  <g id="Grupo_85262" data-name="Grupo 85262">
                    <g id="Grupo_85261" data-name="Grupo 85261">
                      <path id="Trazado_147511" data-name="Trazado 147511" d="M106.341,390.158a4.977,4.977,0,0,0-.417.971c-.24.635-.566,1.562-.934,2.718-.745,2.31-1.658,5.537-2.577,9.122s-1.681,6.848-2.213,9.213c-.243,1.12-.447,2.059-.61,2.806a4.983,4.983,0,0,0-.167,1.043,5.058,5.058,0,0,0,.33-1l.742-2.774c.619-2.435,1.433-5.637,2.334-9.177.919-3.581,1.783-6.813,2.453-9.14.32-1.1.588-2.021.8-2.754A5.042,5.042,0,0,0,106.341,390.158Z" transform="translate(-99.415 -390.158)" fill="#263238"/>
                    </g>
                  </g>
                </g>
              </g>
              <g id="Grupo_85268" data-name="Grupo 85268" transform="translate(4.034 0.363)">
                <g id="Grupo_85267" data-name="Grupo 85267">
                  <g id="Grupo_85266" data-name="Grupo 85266">
                    <g id="Grupo_85265" data-name="Grupo 85265">
                      <path id="Trazado_147512" data-name="Trazado 147512" d="M77.836,406.472a.889.889,0,0,0,.046-.215c.024-.168.055-.378.092-.638.085-.56.161-1.391.331-2.452.3-2.128.829-5.193,1.7-8.932A127.815,127.815,0,0,1,83.794,381.3c1.66-4.8,3.744-9.982,6.1-15.346,4.764-10.718,9.523-20.223,12.651-27.252,1.581-3.506,2.8-6.369,3.61-8.363.411-.993.7-1.776.91-2.3l.225-.6a.923.923,0,0,0,.064-.211.815.815,0,0,0-.1.195l-.264.588-.984,2.271c-.853,1.973-2.118,4.814-3.732,8.3-3.2,6.991-8,16.472-12.767,27.2-2.365,5.373-4.441,10.573-6.086,15.391a121.473,121.473,0,0,0-3.712,13,90.386,90.386,0,0,0-1.568,8.977c-.146,1.066-.195,1.9-.252,2.466l-.05.642A.805.805,0,0,0,77.836,406.472Z" transform="translate(-77.831 -327.217)" fill="#263238"/>
                    </g>
                  </g>
                </g>
              </g>
              <g id="Grupo_85272" data-name="Grupo 85272" transform="translate(0 44.936)">
                <g id="Grupo_85271" data-name="Grupo 85271">
                  <g id="Grupo_85270" data-name="Grupo 85270">
                    <g id="Grupo_85269" data-name="Grupo 85269">
                      <path id="Trazado_147513" data-name="Trazado 147513" d="M106.591,413.158a8.585,8.585,0,0,0,.273-1.361c.161-.951.373-2.206.63-3.723.559-3.137,1.411-7.458,2.635-12.162s2.579-8.9,3.631-11.9l1.266-3.557a8.577,8.577,0,0,0,.43-1.319,8.566,8.566,0,0,0-.586,1.258c-.349.822-.837,2.019-1.4,3.515a117.754,117.754,0,0,0-3.761,11.9,124.082,124.082,0,0,0-2.519,12.221c-.23,1.58-.407,2.86-.5,3.749A8.555,8.555,0,0,0,106.591,413.158Z" transform="translate(-106.581 -379.132)" fill="#263238"/>
                    </g>
                  </g>
                </g>
              </g>
            </g>
          </g>
          <g id="Grupo_85284" data-name="Grupo 85284" transform="translate(14.405 77.798)">
            <g id="Grupo_85277" data-name="Grupo 85277" transform="translate(0)">
              <g id="Grupo_85276" data-name="Grupo 85276">
                <g id="Grupo_85275" data-name="Grupo 85275">
                  <rect id="Rectángulo_31831" data-name="Rectángulo 31831" width="31.608" height="38.511" fill="#31024e"/>
                </g>
              </g>
            </g>
            <g id="Grupo_85280" data-name="Grupo 85280" transform="translate(0)" opacity="0.3">
              <g id="Grupo_85279" data-name="Grupo 85279">
                <g id="Grupo_85278" data-name="Grupo 85278">
                  <rect id="Rectángulo_31832" data-name="Rectángulo 31832" width="31.608" height="38.511" fill="#31024e"/>
                </g>
              </g>
            </g>
            <g id="Grupo_85283" data-name="Grupo 85283" transform="translate(10.083)">
              <g id="Grupo_85282" data-name="Grupo 85282">
                <g id="Grupo_85281" data-name="Grupo 85281">
                  <rect id="Rectángulo_31833" data-name="Rectángulo 31833" width="28.043" height="38.511" fill="#31024e"/>
                </g>
              </g>
            </g>
          </g>
        </g>
      </g>
      <g id="Character" transform="translate(1081.772 235.029)">
        <g id="Grupo_85944" data-name="Grupo 85944" transform="translate(0)">
          <g id="Grupo_85621" data-name="Grupo 85621" transform="translate(224.515 194.969)">
            <g id="Grupo_85620" data-name="Grupo 85620" transform="translate(0)">
              <path id="Trazado_147553" data-name="Trazado 147553" d="M450.22,375.166a9.62,9.62,0,0,0,4.29-7.03,11.8,11.8,0,0,1-16.139-8.982l-14.406.04a49.118,49.118,0,0,1-3.659,23.217c-.726,1.723-1.542,3.751-.588,5.359.844,1.422,2.687,1.818,4.321,2.078,7.487,1.191,15.251,2.37,22.556.341s14.037-8.211,14.141-15.792A10.9,10.9,0,0,1,450.22,375.166Z" transform="translate(-419.284 -359.154)" fill="#263238"/>
            </g>
          </g>
          <g id="Grupo_85628" data-name="Grupo 85628" transform="translate(0 255.845)">
            <g id="Grupo_85623" data-name="Grupo 85623" transform="translate(73.58 18.596)">
              <g id="Grupo_85622" data-name="Grupo 85622" transform="translate(0)">
                <path id="Trazado_147554" data-name="Trazado 147554" d="M251.153,447.68V460.77h2.664V447.989Z" transform="translate(-251.153 -447.68)" fill="#455a64"/>
              </g>
            </g>
            <g id="Grupo_85625" data-name="Grupo 85625">
              <g id="Grupo_85624" data-name="Grupo 85624">
                <path id="Trazado_147555" data-name="Trazado 147555" d="M250.151,450.3l-80.607-15.739-.354-7.594,82.435,15.783Z" transform="translate(-169.191 -426.965)" fill="#455a64"/>
              </g>
            </g>
            <g id="Grupo_85627" data-name="Grupo 85627" transform="translate(11.59 7.96)">
              <g id="Grupo_85626" data-name="Grupo 85626" transform="translate(0)">
                <path id="Trazado_147556" data-name="Trazado 147556" d="M182.1,435.832v23.726h2.664V436.393Z" transform="translate(-182.102 -435.832)" fill="#455a64"/>
              </g>
            </g>
          </g>
          <g id="Grupo_85847" data-name="Grupo 85847" transform="translate(101.816)">
            <g id="Grupo_85630" data-name="Grupo 85630" transform="translate(86.211 33.848)">
              <g id="Grupo_85629" data-name="Grupo 85629" transform="translate(0)">
                <path id="Trazado_147557" data-name="Trazado 147557" d="M410.2,270.49c-.805-25.539-.008-45.38-3.022-70.754-.373-3.133-1.849-11.073-4.333-14.681-1.951-2.835-7.791-7.193-12.026-4.569l-3.517,3.907c1.233,7.322,2.448,14.966.247,22.057-1.947,6.273-6.425,11.565-8.095,17.917-1.407,5.349-.708,11,.052,16.476q1.78,12.826,3.951,25.6c.487,2.866,1.049,5.868,2.875,8.13,3.282,4.064,9.278,4.316,14.5,4.227,3.188-.054,6.944-.421,8.561-3.169A9.438,9.438,0,0,0,410.2,270.49Z" transform="translate(-378.64 -179.676)" fill="#263238"/>
              </g>
            </g>
            <g id="Grupo_85632" data-name="Grupo 85632" transform="translate(90.491 30.641)">
              <g id="Grupo_85631" data-name="Grupo 85631">
                <path id="Trazado_147558" data-name="Trazado 147558" d="M392.684,181.409a10.3,10.3,0,0,0-3.065-4.674,2.863,2.863,0,0,0-4.329.824l.218.367c-.825-.435-1.759.4-2,1.434a7.247,7.247,0,0,0,.244,3.209l3.146,13.68a7.486,7.486,0,0,0,1.354,3.335,2.864,2.864,0,0,0,3.912.258,7.284,7.284,0,0,0,2.286-4.086C395.6,191.092,394.483,185.9,392.684,181.409Z" transform="translate(-383.407 -176.103)" fill="#455a64"/>
              </g>
            </g>
            <g id="Grupo_85826" data-name="Grupo 85826" transform="translate(0)">
              <g id="Grupo_85807" data-name="Grupo 85807">
                <g id="Grupo_85634" data-name="Grupo 85634" transform="translate(0)">
                  <g id="Grupo_85633" data-name="Grupo 85633">
                    <path id="Trazado_147559" data-name="Trazado 147559" d="M371.478,164.49c-7.729-13.864-20.239-22.328-44.185-22.517-25.48-.2-63.307,31.805-34.107,66.89l76.859,20.623c7.263-2.927,10.494-11.441,11.456-19.212C383.448,194.514,379.211,178.359,371.478,164.49Z" transform="translate(-282.607 -141.972)" fill="#263238"/>
                  </g>
                </g>
                <g id="Grupo_85738" data-name="Grupo 85738" transform="translate(5.879 17.37)">
                  <g id="Grupo_85737" data-name="Grupo 85737">
                    <g id="Grupo_85639" data-name="Grupo 85639">
                      <g id="Grupo_85638" data-name="Grupo 85638">
                        <g id="Grupo_85637" data-name="Grupo 85637">
                          <g id="Grupo_85636" data-name="Grupo 85636">
                            <g id="Grupo_85635" data-name="Grupo 85635">
                              <path id="Trazado_147560" data-name="Trazado 147560" d="M360.507,168.726l-1.554-7.405L312.742,163.1c-13.983,1.7-25.591,18.786-23.3,32.683,2.55,15.442,6.271,34.193,10.691,45.133,8.89,22,27.062,20.871,27.062,20.871l5.322,22.646,50.647-11.005Z" transform="translate(-289.155 -161.321)" fill="#ffbe9d"/>
                            </g>
                          </g>
                        </g>
                      </g>
                    </g>
                    <g id="Grupo_85652" data-name="Grupo 85652" transform="translate(9.785 49.728)">
                      <g id="Grupo_85651" data-name="Grupo 85651">
                        <g id="Grupo_85650" data-name="Grupo 85650">
                          <g id="Grupo_85649" data-name="Grupo 85649">
                            <g id="Grupo_85648" data-name="Grupo 85648">
                              <g id="Grupo_85647" data-name="Grupo 85647">
                                <g id="Grupo_85646" data-name="Grupo 85646">
                                  <g id="Grupo_85645" data-name="Grupo 85645">
                                    <g id="Grupo_85644" data-name="Grupo 85644">
                                      <g id="Grupo_85643" data-name="Grupo 85643">
                                        <g id="Grupo_85642" data-name="Grupo 85642">
                                          <g id="Grupo_85641" data-name="Grupo 85641">
                                            <g id="Grupo_85640" data-name="Grupo 85640">
                                              <path id="Trazado_147561" data-name="Trazado 147561" d="M300.105,220.1a3.005,3.005,0,0,0,3.5,2.3,2.873,2.873,0,0,0,2.41-3.336,3.006,3.006,0,0,0-3.5-2.306A2.877,2.877,0,0,0,300.105,220.1Z" transform="translate(-300.055 -216.714)" fill="#263238"/>
                                            </g>
                                          </g>
                                        </g>
                                      </g>
                                    </g>
                                  </g>
                                </g>
                              </g>
                            </g>
                          </g>
                        </g>
                      </g>
                    </g>
                    <g id="Grupo_85666" data-name="Grupo 85666" transform="translate(6.895 42.603)">
                      <g id="Grupo_85665" data-name="Grupo 85665">
                        <g id="Grupo_85664" data-name="Grupo 85664">
                          <g id="Grupo_85663" data-name="Grupo 85663">
                            <g id="Grupo_85662" data-name="Grupo 85662">
                              <g id="Grupo_85661" data-name="Grupo 85661">
                                <g id="Grupo_85660" data-name="Grupo 85660">
                                  <g id="Grupo_85659" data-name="Grupo 85659">
                                    <g id="Grupo_85658" data-name="Grupo 85658">
                                      <g id="Grupo_85657" data-name="Grupo 85657">
                                        <g id="Grupo_85656" data-name="Grupo 85656">
                                          <g id="Grupo_85655" data-name="Grupo 85655">
                                            <g id="Grupo_85654" data-name="Grupo 85654">
                                              <g id="Grupo_85653" data-name="Grupo 85653">
                                                <path id="Trazado_147562" data-name="Trazado 147562" d="M296.877,209.8c.349.265,2.68-.317,5.877.152,3.2.443,5.466,1.683,5.832,1.519.179-.069-.163-.505-1.151-1.06a13.943,13.943,0,0,0-4.647-1.479,12.469,12.469,0,0,0-4.7.144C297.069,209.341,296.7,209.675,296.877,209.8Z" transform="translate(-296.836 -208.778)" fill="#263238"/>
                                              </g>
                                            </g>
                                          </g>
                                        </g>
                                      </g>
                                    </g>
                                  </g>
                                </g>
                              </g>
                            </g>
                          </g>
                        </g>
                      </g>
                    </g>
                    <g id="Grupo_85679" data-name="Grupo 85679" transform="translate(39.893 43.122)">
                      <g id="Grupo_85678" data-name="Grupo 85678" transform="translate(0)">
                        <g id="Grupo_85677" data-name="Grupo 85677">
                          <g id="Grupo_85676" data-name="Grupo 85676">
                            <g id="Grupo_85675" data-name="Grupo 85675">
                              <g id="Grupo_85674" data-name="Grupo 85674">
                                <g id="Grupo_85673" data-name="Grupo 85673">
                                  <g id="Grupo_85672" data-name="Grupo 85672">
                                    <g id="Grupo_85671" data-name="Grupo 85671">
                                      <g id="Grupo_85670" data-name="Grupo 85670">
                                        <g id="Grupo_85669" data-name="Grupo 85669">
                                          <g id="Grupo_85668" data-name="Grupo 85668">
                                            <g id="Grupo_85667" data-name="Grupo 85667">
                                              <path id="Trazado_147563" data-name="Trazado 147563" d="M333.643,212.741a3.005,3.005,0,0,0,3.5,2.3,2.874,2.874,0,0,0,2.41-3.336,3.006,3.006,0,0,0-3.5-2.306A2.877,2.877,0,0,0,333.643,212.741Z" transform="translate(-333.593 -209.355)" fill="#263238"/>
                                            </g>
                                          </g>
                                        </g>
                                      </g>
                                    </g>
                                  </g>
                                </g>
                              </g>
                            </g>
                          </g>
                        </g>
                      </g>
                    </g>
                    <g id="Grupo_85693" data-name="Grupo 85693" transform="translate(36.865 33.764)">
                      <g id="Grupo_85692" data-name="Grupo 85692" transform="translate(0)">
                        <g id="Grupo_85691" data-name="Grupo 85691">
                          <g id="Grupo_85690" data-name="Grupo 85690">
                            <g id="Grupo_85689" data-name="Grupo 85689">
                              <g id="Grupo_85688" data-name="Grupo 85688">
                                <g id="Grupo_85687" data-name="Grupo 85687">
                                  <g id="Grupo_85686" data-name="Grupo 85686">
                                    <g id="Grupo_85685" data-name="Grupo 85685">
                                      <g id="Grupo_85684" data-name="Grupo 85684">
                                        <g id="Grupo_85683" data-name="Grupo 85683">
                                          <g id="Grupo_85682" data-name="Grupo 85682">
                                            <g id="Grupo_85681" data-name="Grupo 85681">
                                              <g id="Grupo_85680" data-name="Grupo 85680">
                                                <path id="Trazado_147564" data-name="Trazado 147564" d="M330.33,205.713c.5-.013,2.277-2.1,5.545-3.879,3.252-1.8,6.17-2.3,6.4-2.685.118-.18-.482-.32-1.765-.117a17.136,17.136,0,0,0-5.275,1.91,15.271,15.271,0,0,0-4.261,3.329C330.212,205.194,330.091,205.729,330.33,205.713Z" transform="translate(-330.22 -198.932)" fill="#263238"/>
                                              </g>
                                            </g>
                                          </g>
                                        </g>
                                      </g>
                                    </g>
                                  </g>
                                </g>
                              </g>
                            </g>
                          </g>
                        </g>
                      </g>
                    </g>
                    <g id="Grupo_85706" data-name="Grupo 85706" transform="translate(23.775 35.92)">
                      <g id="Grupo_85705" data-name="Grupo 85705" transform="translate(0)">
                        <g id="Grupo_85704" data-name="Grupo 85704">
                          <g id="Grupo_85703" data-name="Grupo 85703">
                            <g id="Grupo_85702" data-name="Grupo 85702">
                              <g id="Grupo_85701" data-name="Grupo 85701">
                                <g id="Grupo_85700" data-name="Grupo 85700">
                                  <g id="Grupo_85699" data-name="Grupo 85699">
                                    <g id="Grupo_85698" data-name="Grupo 85698">
                                      <g id="Grupo_85697" data-name="Grupo 85697">
                                        <g id="Grupo_85696" data-name="Grupo 85696">
                                          <g id="Grupo_85695" data-name="Grupo 85695">
                                            <g id="Grupo_85694" data-name="Grupo 85694">
                                              <path id="Trazado_147565" data-name="Trazado 147565" d="M324.281,227.923c-.026-.182-2.064-.068-5.332.257-.823.1-1.622.118-1.884-.4a4.211,4.211,0,0,1-.013-2.51q.462-3.182.968-6.675c1.294-9.486,2.032-17.211,1.65-17.261s-1.742,7.6-3.035,17.087q-.45,3.5-.859,6.69a4.783,4.783,0,0,0,.311,3.254,2.073,2.073,0,0,0,1.594.872,5.624,5.624,0,0,0,1.41-.126C322.326,228.548,324.311,228.1,324.281,227.923Z" transform="translate(-315.638 -201.334)" fill="#263238"/>
                                            </g>
                                          </g>
                                        </g>
                                      </g>
                                    </g>
                                  </g>
                                </g>
                              </g>
                            </g>
                          </g>
                        </g>
                      </g>
                    </g>
                    <g id="Grupo_85718" data-name="Grupo 85718" transform="translate(38.068 85.096)">
                      <g id="Grupo_85717" data-name="Grupo 85717" transform="translate(0)">
                        <g id="Grupo_85716" data-name="Grupo 85716">
                          <g id="Grupo_85715" data-name="Grupo 85715">
                            <g id="Grupo_85714" data-name="Grupo 85714">
                              <g id="Grupo_85713" data-name="Grupo 85713">
                                <g id="Grupo_85712" data-name="Grupo 85712">
                                  <g id="Grupo_85711" data-name="Grupo 85711">
                                    <g id="Grupo_85710" data-name="Grupo 85710">
                                      <g id="Grupo_85709" data-name="Grupo 85709">
                                        <g id="Grupo_85708" data-name="Grupo 85708">
                                          <g id="Grupo_85707" data-name="Grupo 85707">
                                            <path id="Trazado_147566" data-name="Trazado 147566" d="M331.56,271.546a62.046,62.046,0,0,0,29.471-15.434S357,273.879,332.887,277.235Z" transform="translate(-331.56 -256.112)" fill="#eb996e"/>
                                          </g>
                                        </g>
                                      </g>
                                    </g>
                                  </g>
                                </g>
                              </g>
                            </g>
                          </g>
                        </g>
                      </g>
                    </g>
                    <g id="Grupo_85727" data-name="Grupo 85727" transform="translate(33.57 18.048)">
                      <g id="Grupo_85726" data-name="Grupo 85726" transform="translate(0)">
                        <g id="Grupo_85725" data-name="Grupo 85725">
                          <g id="Grupo_85724" data-name="Grupo 85724">
                            <g id="Grupo_85723" data-name="Grupo 85723">
                              <g id="Grupo_85722" data-name="Grupo 85722">
                                <g id="Grupo_85721" data-name="Grupo 85721">
                                  <g id="Grupo_85720" data-name="Grupo 85720">
                                    <g id="Grupo_85719" data-name="Grupo 85719">
                                      <path id="Trazado_147567" data-name="Trazado 147567" d="M326.6,185.529c.508.786,3.561-.347,7.36-.752,3.793-.483,7.023-.088,7.337-.97.134-.418-.572-1.1-1.969-1.656a12.859,12.859,0,0,0-11.2,1.312C326.9,184.323,326.374,185.153,326.6,185.529Z" transform="translate(-326.55 -181.425)" fill="#263238"/>
                                    </g>
                                  </g>
                                </g>
                              </g>
                            </g>
                          </g>
                        </g>
                      </g>
                    </g>
                    <g id="Grupo_85736" data-name="Grupo 85736" transform="translate(5.022 30.404)">
                      <g id="Grupo_85735" data-name="Grupo 85735">
                        <g id="Grupo_85734" data-name="Grupo 85734">
                          <g id="Grupo_85733" data-name="Grupo 85733">
                            <g id="Grupo_85732" data-name="Grupo 85732">
                              <g id="Grupo_85731" data-name="Grupo 85731">
                                <g id="Grupo_85730" data-name="Grupo 85730">
                                  <g id="Grupo_85729" data-name="Grupo 85729">
                                    <g id="Grupo_85728" data-name="Grupo 85728">
                                      <path id="Trazado_147568" data-name="Trazado 147568" d="M294.916,199.93c.719.587,2.719-.656,5.322-1.293,2.58-.727,4.931-.63,5.268-1.5.139-.415-.373-1.052-1.5-1.506a7.93,7.93,0,0,0-8.532,2.247C294.724,198.829,294.59,199.636,294.916,199.93Z" transform="translate(-294.749 -195.189)" fill="#263238"/>
                                    </g>
                                  </g>
                                </g>
                              </g>
                            </g>
                          </g>
                        </g>
                      </g>
                    </g>
                  </g>
                </g>
                <g id="Grupo_85748" data-name="Grupo 85748" transform="translate(77.846 50.671)">
                  <g id="Grupo_85747" data-name="Grupo 85747" transform="translate(0)">
                    <g id="Grupo_85746" data-name="Grupo 85746">
                      <g id="Grupo_85745" data-name="Grupo 85745">
                        <g id="Grupo_85744" data-name="Grupo 85744">
                          <g id="Grupo_85743" data-name="Grupo 85743">
                            <g id="Grupo_85742" data-name="Grupo 85742">
                              <g id="Grupo_85741" data-name="Grupo 85741">
                                <g id="Grupo_85740" data-name="Grupo 85740">
                                  <g id="Grupo_85739" data-name="Grupo 85739">
                                    <path id="Trazado_147569" data-name="Trazado 147569" d="M369.322,201.1c.273-.238,10.1-8.246,13.751,4.576s-9.973,13.844-10.1,13.482S369.322,201.1,369.322,201.1Z" transform="translate(-369.322 -198.416)" fill="#ffbe9d"/>
                                  </g>
                                </g>
                              </g>
                            </g>
                          </g>
                        </g>
                      </g>
                    </g>
                  </g>
                </g>
                <g id="Grupo_85759" data-name="Grupo 85759" transform="translate(82.336 54.525)">
                  <g id="Grupo_85758" data-name="Grupo 85758" transform="translate(0)">
                    <g id="Grupo_85757" data-name="Grupo 85757">
                      <g id="Grupo_85756" data-name="Grupo 85756">
                        <g id="Grupo_85755" data-name="Grupo 85755">
                          <g id="Grupo_85754" data-name="Grupo 85754">
                            <g id="Grupo_85753" data-name="Grupo 85753">
                              <g id="Grupo_85752" data-name="Grupo 85752">
                                <g id="Grupo_85751" data-name="Grupo 85751">
                                  <g id="Grupo_85750" data-name="Grupo 85750">
                                    <g id="Grupo_85749" data-name="Grupo 85749">
                                      <path id="Trazado_147570" data-name="Trazado 147570" d="M376.018,213.626c.044-.057.268.093.695.159a2.324,2.324,0,0,0,1.679-.442c1.213-.883,1.741-3.358,1.145-5.687A7.66,7.66,0,0,0,378,204.637a2.682,2.682,0,0,0-2.168-1.236,1.183,1.183,0,0,0-1.144.988c-.069.407.085.64.023.68-.027.043-.337-.136-.384-.695a1.483,1.483,0,0,1,.276-.947,1.753,1.753,0,0,1,1.142-.679,3.267,3.267,0,0,1,2.9,1.323,7.875,7.875,0,0,1,1.792,3.353c.654,2.607.021,5.4-1.68,6.465a2.492,2.492,0,0,1-2.14.242C376.129,213.93,375.98,213.662,376.018,213.626Z" transform="translate(-374.323 -202.709)" fill="#eb996e"/>
                                    </g>
                                  </g>
                                </g>
                              </g>
                            </g>
                          </g>
                        </g>
                      </g>
                    </g>
                  </g>
                </g>
                <g id="Grupo_85762" data-name="Grupo 85762" transform="translate(2.787 9.611)">
                  <g id="Grupo_85761" data-name="Grupo 85761">
                    <g id="Grupo_85760" data-name="Grupo 85760">
                      <path id="Trazado_147571" data-name="Trazado 147571" d="M333.554,153.993a5.005,5.005,0,0,0-1.894-.614,42.716,42.716,0,0,0-24.445,2.627,33.508,33.508,0,0,0-17.363,17.085c-3.262,7.649-6.245,19.587-2.155,26.826l3.237,5.5c-.771-5.611.411-16.251,2.657-21.449a23.022,23.022,0,0,1,11.48-11.987c5.192-2.3,11.073-2.3,16.627-3.482s11.415-4.233,12.988-9.69C335.178,157.111,335.041,154.956,333.554,153.993Z" transform="translate(-285.711 -152.678)" fill="#263238"/>
                    </g>
                  </g>
                </g>
                <g id="Grupo_85767" data-name="Grupo 85767" transform="translate(49.729 8.573)">
                  <g id="Grupo_85766" data-name="Grupo 85766">
                    <g id="Grupo_85765" data-name="Grupo 85765">
                      <g id="Grupo_85764" data-name="Grupo 85764">
                        <g id="Grupo_85763" data-name="Grupo 85763">
                          <path id="Trazado_147572" data-name="Trazado 147572" d="M340.851,153.873c-1.365,4.132-2.744,8.338-2.845,12.688s1.265,8.946,4.578,11.768c3.172,2.7,7.528,3.381,11.583,4.344s3.629,3.336,5.578,7.019c.61,1.153,4.273,13.144,5.429,13.747,1.586.827,5.583-8.124,6.15-9.82s-.319-7.241-.768-8.973c-1.391-5.371-1.826-13.5-3.217-18.875-1.178-4.549-3.48-6.466-6.561-10.013-4.31-4.959-10.5-5.227-18.692-2.549" transform="translate(-338.001 -151.522)" fill="#263238"/>
                        </g>
                      </g>
                    </g>
                  </g>
                </g>
                <g id="Grupo_85806" data-name="Grupo 85806" transform="translate(1.774 41.918)">
                  <g id="Grupo_85771" data-name="Grupo 85771" transform="translate(0.874 3.181)">
                    <g id="Grupo_85770" data-name="Grupo 85770">
                      <g id="Grupo_85769" data-name="Grupo 85769">
                        <g id="Grupo_85768" data-name="Grupo 85768">
                          <path id="Trazado_147573" data-name="Trazado 147573" d="M285.557,206.76s.016.045.039.123l.094.356c.083.33.2.8.357,1.412.314,1.241.778,3.07,1.408,5.419s1.41,5.219,2.488,8.5a30.456,30.456,0,0,0,2.05,5.1c.134.2.258.4.4.6.168.177.321.371.5.539a7.981,7.981,0,0,0,1.172.945,9.8,9.8,0,0,0,2.846,1.292,13.617,13.617,0,0,0,6.684.019,9.844,9.844,0,0,0,3.292-1.347,10.486,10.486,0,0,0,2.673-2.549,18.56,18.56,0,0,0,3.044-7.175,7.585,7.585,0,0,1,.591-2.006,3.43,3.43,0,0,1,1.437-1.61,2.469,2.469,0,0,1,2.183.075,5.706,5.706,0,0,1,1.722,1.357c.51.519.9,1.172,1.365,1.7a8.294,8.294,0,0,0,1.544,1.484,15.133,15.133,0,0,0,3.9,2.028,27.86,27.86,0,0,0,8.968,1.571A26.341,26.341,0,0,0,339,224.26a10.252,10.252,0,0,0,1.163-.224c.383-.1.779-.154,1.154-.285l1.136-.359c.361-.161.728-.3,1.078-.491a56.462,56.462,0,0,0,7.958-5.67q2.953-2.417,5.74-4.913l-.054.188c-1.947-6.977-3.825-13.71-5.59-20.037l.209.126-47.47,10.2-13.779,2.935-3.693.777-.96.2c-.217.043-.335.061-.335.061s.1-.029.309-.078l.934-.214,3.648-.813,13.717-3.022,47.553-10.388.164-.036.046.162c1.769,6.326,3.653,13.057,5.6,20.033l.031.112-.085.076q-2.79,2.5-5.754,4.928a56.584,56.584,0,0,1-8.024,5.71c-.356.2-.748.345-1.121.51l-1.161.366c-.383.134-.786.191-1.176.29a10.483,10.483,0,0,1-1.182.227,26.7,26.7,0,0,1-4.746.333,28.209,28.209,0,0,1-9.086-1.6,15.515,15.515,0,0,1-3.989-2.083,8.67,8.67,0,0,1-1.606-1.549c-.493-.568-.846-1.172-1.345-1.682a5.373,5.373,0,0,0-1.616-1.283,2.125,2.125,0,0,0-1.886-.082,3.105,3.105,0,0,0-1.287,1.453,7.209,7.209,0,0,0-.568,1.927,18.848,18.848,0,0,1-3.118,7.294,10.8,10.8,0,0,1-2.758,2.615,10.162,10.162,0,0,1-3.391,1.376,13.876,13.876,0,0,1-6.82-.045,10.068,10.068,0,0,1-2.916-1.339,8.235,8.235,0,0,1-1.2-.979c-.188-.173-.346-.374-.518-.558-.149-.2-.28-.423-.419-.631a30.431,30.431,0,0,1-2.046-5.158c-1.061-3.291-1.812-6.173-2.429-8.525s-1.05-4.191-1.34-5.438c-.14-.616-.247-1.088-.322-1.42l-.076-.366C285.562,206.8,285.557,206.76,285.557,206.76Z" transform="translate(-285.557 -192.209)" fill="#263238"/>
                        </g>
                      </g>
                    </g>
                  </g>
                  <g id="Grupo_85775" data-name="Grupo 85775" transform="translate(2.992 19.662)">
                    <g id="Grupo_85774" data-name="Grupo 85774">
                      <g id="Grupo_85773" data-name="Grupo 85773">
                        <g id="Grupo_85772" data-name="Grupo 85772">
                          <path id="Trazado_147574" data-name="Trazado 147574" d="M292.908,229.713c-.1.026-1.3-4.239-2.673-9.525s-2.411-9.594-2.312-9.62,1.3,4.238,2.673,9.527S293.008,229.687,292.908,229.713Z" transform="translate(-287.917 -210.568)" fill="#fafafa"/>
                        </g>
                      </g>
                    </g>
                  </g>
                  <g id="Grupo_85779" data-name="Grupo 85779" transform="translate(19.106 22.235)">
                    <g id="Grupo_85778" data-name="Grupo 85778">
                      <g id="Grupo_85777" data-name="Grupo 85777">
                        <g id="Grupo_85776" data-name="Grupo 85776">
                          <path id="Trazado_147575" data-name="Trazado 147575" d="M312.072,213.435c.1.04-1.216,3.3-2.928,7.285s-3.178,7.179-3.273,7.138,1.216-3.3,2.929-7.285S311.977,213.395,312.072,213.435Z" transform="translate(-305.866 -213.435)" fill="#fafafa"/>
                        </g>
                      </g>
                    </g>
                  </g>
                  <g id="Grupo_85783" data-name="Grupo 85783" transform="translate(23.331 17.48)">
                    <g id="Grupo_85782" data-name="Grupo 85782">
                      <g id="Grupo_85781" data-name="Grupo 85781">
                        <g id="Grupo_85780" data-name="Grupo 85780">
                          <path id="Trazado_147576" data-name="Trazado 147576" d="M316.308,208.138a11.476,11.476,0,0,1-.629,2.073c-.443,1.262-1.1,2.989-1.891,4.87s-1.572,3.557-2.166,4.754a11.481,11.481,0,0,1-1.045,1.9,13.464,13.464,0,0,1,.805-2.01l2.061-4.788,1.988-4.818A13.423,13.423,0,0,1,316.308,208.138Z" transform="translate(-310.572 -208.138)" fill="#fafafa"/>
                        </g>
                      </g>
                    </g>
                  </g>
                  <g id="Grupo_85787" data-name="Grupo 85787" transform="translate(53.407 10.096)">
                    <g id="Grupo_85786" data-name="Grupo 85786">
                      <g id="Grupo_85785" data-name="Grupo 85785">
                        <g id="Grupo_85784" data-name="Grupo 85784">
                          <path id="Trazado_147577" data-name="Trazado 147577" d="M352.137,199.913a2.866,2.866,0,0,1-.254.7c-.186.441-.465,1.073-.818,1.851-.706,1.556-1.7,3.693-2.827,6.044-1.8,3.776-3.381,6.953-3.963,8l-.2.357.089-.392a.258.258,0,1,1,.115.02l-.11-.035c.448-1.111,1.928-4.336,3.732-8.111,1.123-2.351,2.158-4.472,2.925-6,.383-.763.7-1.378.926-1.8A2.857,2.857,0,0,1,352.137,199.913Z" transform="translate(-344.075 -199.913)" fill="#fafafa"/>
                        </g>
                      </g>
                    </g>
                  </g>
                  <g id="Grupo_85791" data-name="Grupo 85791" transform="translate(56.681 12.93)">
                    <g id="Grupo_85790" data-name="Grupo 85790" transform="translate(0)">
                      <g id="Grupo_85789" data-name="Grupo 85789">
                        <g id="Grupo_85788" data-name="Grupo 85788">
                          <path id="Trazado_147578" data-name="Trazado 147578" d="M353.925,203.07a68.884,68.884,0,0,1-2.931,6.556,68.951,68.951,0,0,1-3.268,6.4,69.127,69.127,0,0,1,2.931-6.556A68.991,68.991,0,0,1,353.925,203.07Z" transform="translate(-347.722 -203.069)" fill="#fafafa"/>
                        </g>
                      </g>
                    </g>
                  </g>
                  <g id="Grupo_85795" data-name="Grupo 85795" transform="translate(37.793 30.916)">
                    <g id="Grupo_85794" data-name="Grupo 85794" transform="translate(0)">
                      <g id="Grupo_85793" data-name="Grupo 85793">
                        <g id="Grupo_85792" data-name="Grupo 85792">
                          <path id="Trazado_147579" data-name="Trazado 147579" d="M348.586,224.243a4.253,4.253,0,0,1-.774.482,7.871,7.871,0,0,1-.953.484,13.209,13.209,0,0,1-1.309.547,14.849,14.849,0,0,1-1.639.524,19.612,19.612,0,0,1-1.929.431,20.735,20.735,0,0,1-8.985-.466,19.485,19.485,0,0,1-1.874-.628,14.84,14.84,0,0,1-1.576-.69,13.362,13.362,0,0,1-1.245-.679,8.014,8.014,0,0,1-.9-.581,4.274,4.274,0,0,1-.72-.559c.044-.066,1.09.709,2.977,1.58a16.229,16.229,0,0,0,1.571.639c.567.227,1.2.392,1.856.585a21.686,21.686,0,0,0,8.842.458c.673-.124,1.318-.223,1.9-.391a16.257,16.257,0,0,0,1.629-.473C347.429,224.837,348.55,224.173,348.586,224.243Z" transform="translate(-326.682 -223.105)" fill="#fafafa"/>
                        </g>
                      </g>
                    </g>
                  </g>
                  <g id="Grupo_85799" data-name="Grupo 85799" transform="translate(66.94 3.587)">
                    <g id="Grupo_85798" data-name="Grupo 85798" transform="translate(0)">
                      <g id="Grupo_85797" data-name="Grupo 85797">
                        <g id="Grupo_85796" data-name="Grupo 85796">
                          <path id="Trazado_147580" data-name="Trazado 147580" d="M364.881,212.5a2.243,2.243,0,0,1-.118-.347l-.319-1.062c-.285-.977-.683-2.339-1.178-4.034-1.007-3.521-2.407-8.416-4.027-14.083l-.089-.311.312.092,7.807,2.305,5.869,1.745.1.031.022.106,2.236,10.484.025.117-.107.05-7.709,3.622-2.106.972-.544.244a.848.848,0,0,1-.18.07,1.41,1.41,0,0,1,.2-.111l.558-.286,2.107-1.057,7.544-3.726-.082.168c-.67-3.052-1.45-6.6-2.3-10.47l.126.136-5.872-1.737-7.8-2.321.223-.22c1.538,5.634,2.866,10.5,3.821,14,.461,1.725.83,3.112,1.1,4.105.119.46.215.829.288,1.112A3.653,3.653,0,0,1,364.881,212.5Z" transform="translate(-359.15 -192.662)" fill="#263238"/>
                        </g>
                      </g>
                    </g>
                  </g>
                  <g id="Grupo_85802" data-name="Grupo 85802" transform="translate(0)">
                    <g id="Grupo_85801" data-name="Grupo 85801">
                      <g id="Grupo_85800" data-name="Grupo 85800">
                        <path id="Trazado_147581" data-name="Trazado 147581" d="M285.458,207.066l-.874-3.71,66.549-14.69,1.042,4.189Z" transform="translate(-284.583 -188.666)" fill="#455a64"/>
                      </g>
                    </g>
                  </g>
                  <g id="Grupo_85805" data-name="Grupo 85805" transform="translate(66.549)">
                    <g id="Grupo_85804" data-name="Grupo 85804" transform="translate(0)">
                      <g id="Grupo_85803" data-name="Grupo 85803">
                        <path id="Trazado_147582" data-name="Trazado 147582" d="M358.714,188.666l13.779,4.647.872,3.656-13.609-4.114Z" transform="translate(-358.714 -188.666)" fill="#455a64"/>
                      </g>
                    </g>
                  </g>
                </g>
              </g>
              <g id="Grupo_85812" data-name="Grupo 85812" transform="translate(42.396 83.44)">
                <g id="Grupo_85811" data-name="Grupo 85811" transform="translate(0)">
                  <g id="Grupo_85810" data-name="Grupo 85810">
                    <g id="Grupo_85809" data-name="Grupo 85809">
                      <g id="Grupo_85808" data-name="Grupo 85808">
                        <path id="Trazado_147583" data-name="Trazado 147583" d="M338.629,238.444a4.459,4.459,0,0,0-4.51-3.516,4.659,4.659,0,0,0-3.656,2.446,5.731,5.731,0,0,0-.33,4.454l.062.322a5.08,5.08,0,0,0,5.679,1.379A4.748,4.748,0,0,0,338.629,238.444Z" transform="translate(-329.833 -234.918)" fill="#eb996e"/>
                      </g>
                    </g>
                  </g>
                </g>
              </g>
              <g id="Grupo_85825" data-name="Grupo 85825" transform="translate(40.277 81.203)">
                <g id="Grupo_85824" data-name="Grupo 85824">
                  <g id="Grupo_85823" data-name="Grupo 85823">
                    <g id="Grupo_85822" data-name="Grupo 85822">
                      <g id="Grupo_85821" data-name="Grupo 85821">
                        <g id="Grupo_85820" data-name="Grupo 85820">
                          <g id="Grupo_85819" data-name="Grupo 85819">
                            <g id="Grupo_85818" data-name="Grupo 85818">
                              <g id="Grupo_85817" data-name="Grupo 85817">
                                <g id="Grupo_85816" data-name="Grupo 85816">
                                  <g id="Grupo_85815" data-name="Grupo 85815">
                                    <g id="Grupo_85814" data-name="Grupo 85814">
                                      <g id="Grupo_85813" data-name="Grupo 85813">
                                        <path id="Trazado_147584" data-name="Trazado 147584" d="M327.474,241.9c.011-.52,3.461-.256,6.141-3.016s2.589-6.463,3.074-6.452c.22-.031.606.872.526,2.427a8.62,8.62,0,0,1-2.37,5.4,7.509,7.509,0,0,1-5.133,2.308C328.259,242.581,327.434,242.13,327.474,241.9Z" transform="translate(-327.473 -232.426)" fill="#263238"/>
                                      </g>
                                    </g>
                                  </g>
                                </g>
                              </g>
                            </g>
                          </g>
                        </g>
                      </g>
                    </g>
                  </g>
                </g>
              </g>
            </g>
            <g id="Grupo_85829" data-name="Grupo 85829" transform="translate(90.5 49.512)">
              <g id="Grupo_85828" data-name="Grupo 85828">
                <g id="Grupo_85827" data-name="Grupo 85827">
                  <path id="Trazado_147585" data-name="Trazado 147585" d="M391.225,197.125a1.2,1.2,0,0,1,.1.375c.048.25.125.618.2,1.094.148.954.323,2.341.446,4.064a55.9,55.9,0,0,1-.622,13.463,34.29,34.29,0,0,1-2.163,7.123,43.3,43.3,0,0,1-2.827,5.374l-2.125,3.482a9.5,9.5,0,0,1-.815,1.257,8.745,8.745,0,0,1,.657-1.347c.452-.853,1.145-2.065,2-3.559a47.773,47.773,0,0,0,2.716-5.374,35.543,35.543,0,0,0,2.1-7.042,61.4,61.4,0,0,0,.752-13.359c-.081-1.716-.2-3.1-.3-4.06A9.92,9.92,0,0,1,391.225,197.125Z" transform="translate(-383.417 -197.125)" fill="#455a64"/>
                </g>
              </g>
            </g>
            <g id="Grupo_85832" data-name="Grupo 85832" transform="translate(100.302 42.617)">
              <g id="Grupo_85831" data-name="Grupo 85831" transform="translate(0)">
                <g id="Grupo_85830" data-name="Grupo 85830">
                  <path id="Trazado_147586" data-name="Trazado 147586" d="M405.284,265.726a.688.688,0,0,1-.029-.206c-.01-.164-.022-.364-.037-.607q-.036-.86-.1-2.333c-.066-2.069-.159-4.991-.272-8.583-.186-7.285-.441-17.28-.722-28.321-.121-5.531-.236-10.8-.341-15.594-.048-2.4-.108-4.669-.352-6.776a23.878,23.878,0,0,0-1.305-5.724,14.184,14.184,0,0,0-5.008-6.719,13.352,13.352,0,0,0-2.785-1.416.739.739,0,0,1,.2.042c.132.038.33.089.584.174a10.16,10.16,0,0,1,2.1,1.049,14.1,14.1,0,0,1,5.214,6.752,23.866,23.866,0,0,1,1.382,5.8c.264,2.128.338,4.416.4,6.811.117,4.8.244,10.064.378,15.594.228,11.042.434,21.038.585,28.325.051,3.593.093,6.516.123,8.587q.007,1.473.011,2.335c0,.243-.007.443-.01.608A.7.7,0,0,1,405.284,265.726Z" transform="translate(-394.335 -189.444)" fill="#455a64"/>
                </g>
              </g>
            </g>
            <g id="Grupo_85835" data-name="Grupo 85835" transform="translate(51.103 19.551)">
              <g id="Grupo_85834" data-name="Grupo 85834">
                <g id="Grupo_85833" data-name="Grupo 85833">
                  <path id="Trazado_147587" data-name="Trazado 147587" d="M382.914,180.269a2.11,2.11,0,0,1-.509.059l-1.465.076c-1.272.034-3.117.071-5.394-.012a91.879,91.879,0,0,1-17.628-2.362,63.008,63.008,0,0,1-9.393-2.84,16.535,16.535,0,0,1-6.552-4.593,10.554,10.554,0,0,1-2.327-4.866,7.94,7.94,0,0,1-.112-1.47,2.133,2.133,0,0,1,.049-.512,19.088,19.088,0,0,0,.241,1.948,10.781,10.781,0,0,0,2.4,4.688,16.5,16.5,0,0,0,6.465,4.408,65.884,65.884,0,0,0,9.333,2.782,100.607,100.607,0,0,0,17.536,2.487c2.268.125,4.106.138,5.377.161l1.464.011A2.171,2.171,0,0,1,382.914,180.269Z" transform="translate(-339.532 -163.75)" fill="#455a64"/>
                </g>
              </g>
            </g>
            <g id="Grupo_85838" data-name="Grupo 85838" transform="translate(50.343 17.797)">
              <g id="Grupo_85837" data-name="Grupo 85837">
                <g id="Grupo_85836" data-name="Grupo 85836">
                  <path id="Trazado_147588" data-name="Trazado 147588" d="M379.937,169.795a14.085,14.085,0,0,1-1.726.041c-1.11.006-2.714.056-4.693.175s-4.335.32-6.957.51a78.1,78.1,0,0,1-8.562.232,34.26,34.26,0,0,1-8.468-1.388,23.14,23.14,0,0,1-6.343-2.98,16.53,16.53,0,0,1-3.5-3.17,10.342,10.342,0,0,1-.766-1.032,1.57,1.57,0,0,1-.232-.383,21.418,21.418,0,0,0,4.683,4.311,23.686,23.686,0,0,0,6.284,2.842,35.111,35.111,0,0,0,8.363,1.333,84.894,84.894,0,0,0,8.514-.195c2.619-.166,4.981-.337,6.969-.41s3.6-.076,4.713-.027c.557.015.987.057,1.279.079A1.626,1.626,0,0,1,379.937,169.795Z" transform="translate(-338.685 -161.796)" fill="#455a64"/>
                </g>
              </g>
            </g>
            <g id="Grupo_85841" data-name="Grupo 85841" transform="translate(30.813 2.485)">
              <g id="Grupo_85840" data-name="Grupo 85840">
                <g id="Grupo_85839" data-name="Grupo 85839">
                  <path id="Trazado_147589" data-name="Trazado 147589" d="M316.93,144.811a4.161,4.161,0,0,1,1.108-.071,13.894,13.894,0,0,1,3.006.377,15.358,15.358,0,0,1,11.947,14.42,13.867,13.867,0,0,1-.188,3.024,4.2,4.2,0,0,1-.276,1.075,27.09,27.09,0,0,0,.134-4.079,15.576,15.576,0,0,0-11.7-14.118A27.009,27.009,0,0,0,316.93,144.811Z" transform="translate(-316.93 -144.74)" fill="#455a64"/>
                </g>
              </g>
            </g>
            <g id="Grupo_85844" data-name="Grupo 85844" transform="translate(47.544 0.324)">
              <g id="Grupo_85843" data-name="Grupo 85843" transform="translate(0)">
                <g id="Grupo_85842" data-name="Grupo 85842">
                  <path id="Trazado_147590" data-name="Trazado 147590" d="M335.572,142.334c.027-.018.2.2.49.62a17.921,17.921,0,0,1,1.11,1.843,17.443,17.443,0,0,1,2.012,6.8,14.8,14.8,0,0,1-1.268,6.973,14.007,14.007,0,0,1-1.021,1.9c-.276.426-.442.653-.47.636-.077-.045.517-1,1.185-2.661a15.844,15.844,0,0,0,1.107-6.815,19.119,19.119,0,0,0-1.842-6.685C336.1,143.325,335.5,142.378,335.572,142.334Z" transform="translate(-335.567 -142.333)" fill="#455a64"/>
                </g>
              </g>
            </g>
            <g id="Grupo_85846" data-name="Grupo 85846" transform="translate(83.575 67.499)">
              <g id="Grupo_85845" data-name="Grupo 85845" transform="translate(0)">
                <path id="Trazado_147591" data-name="Trazado 147591" d="M378.964,217.265a4.884,4.884,0,0,0-3.174,3.541,4.461,4.461,0,0,0,1.657,4.41,4.107,4.107,0,0,0,4.66.084c1.466-1.031,2.422-2.269,1.8-4.945a4.171,4.171,0,0,0-4.939-3.09" transform="translate(-375.703 -217.161)" fill="#ebebeb"/>
              </g>
            </g>
          </g>
          <g id="Grupo_85849" data-name="Grupo 85849" transform="translate(50.428 244.088)">
            <g id="Grupo_85848" data-name="Grupo 85848" transform="translate(0)">
              <path id="Trazado_147592" data-name="Trazado 147592" d="M225.364,413.868" transform="translate(-225.364 -413.868)" fill="none" stroke="#455a64" stroke-linecap="round" stroke-linejoin="round" stroke-width="2"/>
            </g>
          </g>
          <g id="Grupo_85892" data-name="Grupo 85892" transform="translate(69.168 101.511)">
            <g id="Grupo_85851" data-name="Grupo 85851" transform="translate(55.226)">
              <g id="Grupo_85850" data-name="Grupo 85850">
                <path id="Trazado_147593" data-name="Trazado 147593" d="M332.044,297.657l-3.523-13.785a3.43,3.43,0,0,1,1.787-3.915L379.526,255.3a2.366,2.366,0,0,1,3.35,1.526l4,15.545L307.756,388.057l1.614-30.676Z" transform="translate(-307.756 -255.048)" fill="#ebebeb"/>
              </g>
            </g>
            <g id="Grupo_85857" data-name="Grupo 85857" transform="translate(0 114.095)">
              <g id="Grupo_85853" data-name="Grupo 85853">
                <g id="Grupo_85852" data-name="Grupo 85852">
                  <path id="Trazado_147594" data-name="Trazado 147594" d="M260.735,382.141l28.823.91,10.457-.656.653,2.327,5.908,42.421-16.02-2.254H253.648s-8.816-9.99-7.215-22.616S260.735,382.141,260.735,382.141Z" transform="translate(-246.239 -382.141)" fill="#c4a424"/>
                </g>
              </g>
              <g id="Grupo_85856" data-name="Grupo 85856" transform="translate(1.211 2.669)" opacity="0.3">
                <g id="Grupo_85855" data-name="Grupo 85855">
                  <g id="Grupo_85854" data-name="Grupo 85854">
                    <path id="Trazado_147595" data-name="Trazado 147595" d="M269.886,390.987a6.574,6.574,0,0,0-1.72-3.93h0a6.491,6.491,0,0,0-6.579-1.685,13.058,13.058,0,0,0-5.627,3.594A30.247,30.247,0,0,0,248.588,401c-.915,2.8-1.495,5.96-.417,8.732,1.33,3.423,3.358,12.426,8.782,12.426,5.791,0,8.29-4.454,11.009-9.308,1.8-3.2,1.605-9.492,1.983-13.144A47.665,47.665,0,0,0,269.886,390.987Z" transform="translate(-247.588 -385.114)" fill="#c4a424"/>
                  </g>
                </g>
              </g>
            </g>
            <g id="Grupo_85859" data-name="Grupo 85859" transform="translate(57.426 3.982)">
              <g id="Grupo_85858" data-name="Grupo 85858">
                <path id="Trazado_147596" data-name="Trazado 147596" d="M428.04,295.827s-4.914-4.34-13.068-11.113C403.519,275.2,386.983,270,386.983,270l-2.905-10.517s-40.855,29.864-48.767,48.426c-5.9,13.835-16.7,42.792-21.814,56.644a54.477,54.477,0,0,0-3.29,15.825l2.034,27.933,4.169,33.359H433.572l-12.451-16.044Z" transform="translate(-310.207 -259.483)" fill="#e5c23b"/>
              </g>
            </g>
            <g id="Grupo_85861" data-name="Grupo 85861" transform="translate(48.997 37.516)">
              <g id="Grupo_85860" data-name="Grupo 85860" transform="translate(0)">
                <path id="Trazado_147597" data-name="Trazado 147597" d="M330.234,296.838s-5.256,9.784-6.81,12.855c-2.233,4.409-21.34,38.217-22.537,55.6-1.052,15.27,10.395,46.7,11.271,45.5l-1.855-9.635,1.014-19.738s.775-18.916,5.347-35.117S332,302.386,332,302.386Z" transform="translate(-300.818 -296.838)" fill="#ffe067"/>
              </g>
            </g>
            <g id="Grupo_85864" data-name="Grupo 85864" transform="translate(56.333 14.499)">
              <g id="Grupo_85863" data-name="Grupo 85863">
                <g id="Grupo_85862" data-name="Grupo 85862">
                  <path id="Trazado_147598" data-name="Trazado 147598" d="M316.286,442.868s-.035-.138-.083-.413c-.048-.292-.114-.7-.2-1.222-.169-1.094-.413-2.681-.727-4.726-.6-4.139-1.477-10.125-2.567-17.591-.515-3.745-1.083-7.861-1.695-12.3-.586-4.445-1.227-9.212-1.747-14.281-.123-1.268-.244-2.556-.278-3.878.031-1.312.066-2.643.2-3.98a72.15,72.15,0,0,1,1.267-8.143,120.4,120.4,0,0,1,4.952-16.75.235.235,0,0,1,.057-.084L329.3,346.612l26.736-24.885-.049.251q-1.876-4.075-3.644-7.915a.21.21,0,0,1,.1-.278.207.207,0,0,1,.089-.02l7.911.01-.17.1c7.96-12.826,14.586-23.5,19.232-30.985,2.322-3.717,4.15-6.64,5.407-8.65.621-.983,1.1-1.742,1.436-2.27.328-.511.511-.767.511-.767s-.147.277-.458.8l-1.385,2.3-5.313,8.709-19.09,31.073a.2.2,0,0,1-.171.1l-7.911.01.19-.3,3.659,7.908a.218.218,0,0,1-.049.251l-26.715,24.908-13.832,12.879.057-.084a120.894,120.894,0,0,0-4.953,16.673,72.214,72.214,0,0,0-1.274,8.091c-.14,1.328-.179,2.644-.212,3.943.031,1.292.146,2.573.266,3.838.506,5.059,1.131,9.83,1.7,14.275.591,4.441,1.139,8.559,1.638,12.306,1.031,7.474,1.858,13.466,2.429,17.609.281,2.049.5,3.64.649,4.737.068.528.121.935.159,1.227C316.28,442.725,316.286,442.868,316.286,442.868Z" transform="translate(-308.99 -271.198)" fill="#263238"/>
                </g>
              </g>
            </g>
            <g id="Grupo_85873" data-name="Grupo 85873" transform="translate(52.172 33.842)">
              <g id="Grupo_85866" data-name="Grupo 85866">
                <g id="Grupo_85865" data-name="Grupo 85865">
                  <path id="Trazado_147599" data-name="Trazado 147599" d="M304.354,443.079l1.236-42.367,66.091-5.149,5.641-26.285s8.61-61.577,16.629-68.182c7.409-6.1,19.074-11.464,27.723-6.226,7.795,4.721,14.487,11.275,11.3,41.778-1.092,10.44-6.863,67.13-9.432,79.622-2.421,11.774-6.873,22.126-16.374,25.169s-37.519,3.055-37.519,3.055Z" transform="translate(-304.354 -292.745)" fill="#ffe067"/>
                </g>
              </g>
              <g id="Grupo_85869" data-name="Grupo 85869" transform="translate(67.325 102.816)">
                <g id="Grupo_85868" data-name="Grupo 85868" transform="translate(0)">
                  <g id="Grupo_85867" data-name="Grupo 85867">
                    <path id="Trazado_147600" data-name="Trazado 147600" d="M379.352,407.276c.081-.049.792,1.232,2.33,2.995a28.536,28.536,0,0,0,2.922,2.876,42.7,42.7,0,0,0,4.048,2.98,67.059,67.059,0,0,0,8.065,4.337l2.534,1.154a4.291,4.291,0,0,1,.914.466,4.336,4.336,0,0,1-.982-.3c-.622-.218-1.513-.561-2.6-1.019a54.141,54.141,0,0,1-8.185-4.246,38.237,38.237,0,0,1-4.077-3.048,25.319,25.319,0,0,1-2.893-2.989,14.459,14.459,0,0,1-.961-1.277,8.416,8.416,0,0,1-.649-1.016A4.346,4.346,0,0,1,379.352,407.276Z" transform="translate(-379.349 -407.274)" fill="#ffe067"/>
                  </g>
                </g>
              </g>
              <g id="Grupo_85872" data-name="Grupo 85872" transform="translate(67.506 102.508)">
                <g id="Grupo_85871" data-name="Grupo 85871" transform="translate(0)">
                  <g id="Grupo_85870" data-name="Grupo 85870">
                    <path id="Trazado_147601" data-name="Trazado 147601" d="M387.995,428.2a3.413,3.413,0,0,1-.567-.712c-.343-.474-.807-1.182-1.349-2.076a49.959,49.959,0,0,1-6-15.141c-.217-1.023-.366-1.856-.441-2.436a3.462,3.462,0,0,1-.076-.908c.074-.013.325,1.252.838,3.268a65,65,0,0,0,2.491,7.72,64.206,64.206,0,0,0,3.472,7.331C387.371,427.071,388.057,428.164,387.995,428.2Z" transform="translate(-379.551 -406.932)" fill="#ffe067"/>
                  </g>
                </g>
              </g>
            </g>
            <g id="Grupo_85876" data-name="Grupo 85876" transform="translate(51.939 77.364)">
              <g id="Grupo_85875" data-name="Grupo 85875">
                <g id="Grupo_85874" data-name="Grupo 85874">
                  <path id="Trazado_147602" data-name="Trazado 147602" d="M382.71,341.7s-.042.352-.149,1.035l-.487,3.033c-.44,2.675-1.086,6.6-1.918,11.665q-.63,3.8-1.4,8.435-.385,2.313-.8,4.824c-.277,1.674-.546,3.417-.958,5.2-1.523,7.145-3.258,15.283-5.176,24.285a.17.17,0,0,1-.152.134l-66.088,5.2.2-.213c-.383,13.287-.8,27.565-1.224,42.368l-.227-.239,23.262.5,38.579.84c3.116.1,6.2.071,9.255,0s6.082-.16,9.075-.294a166.335,166.335,0,0,0,17.489-1.547,24.831,24.831,0,0,0,8.017-2.383,18.707,18.707,0,0,0,6.069-5.366c3.23-4.332,5-9.394,6.3-14.277a123.382,123.382,0,0,0,2.594-14.477q.956-7.024,1.724-13.482c2.069-17.2,3.551-31.136,4.6-40.766.521-4.808.926-8.544,1.2-11.09.142-1.259.25-2.223.323-2.883s.126-.98.126-.98-.018.335-.078.986-.155,1.625-.277,2.887l-1.114,11.1c-1,9.636-2.428,23.58-4.456,40.786q-.764,6.452-1.695,13.492A123.367,123.367,0,0,1,422.752,425c-1.3,4.912-3.07,10.017-6.348,14.428a19.108,19.108,0,0,1-6.194,5.488,25.218,25.218,0,0,1-8.15,2.438,166.331,166.331,0,0,1-17.537,1.567q-4.495.206-9.087.3c-3.057.072-6.156.106-9.269,0l-38.582-.83-23.263-.505a.232.232,0,0,1-.227-.237v0c.436-14.8.857-29.081,1.25-42.367a.22.22,0,0,1,.2-.212l66.095-5.1-.152.133c1.944-9,3.7-17.127,5.244-24.266.418-1.778.693-3.519.977-5.192s.559-3.279.822-4.821c.526-3.08,1.006-5.894,1.439-8.426.871-5.053,1.547-8.976,2.006-11.648.233-1.323.412-2.334.534-3.025S382.71,341.7,382.71,341.7Z" transform="translate(-304.095 -341.226)" fill="#263238"/>
                </g>
              </g>
            </g>
            <g id="Grupo_85879" data-name="Grupo 85879" transform="translate(136.141 39.18)">
              <g id="Grupo_85878" data-name="Grupo 85878" transform="translate(0)">
                <g id="Grupo_85877" data-name="Grupo 85877">
                  <path id="Trazado_147603" data-name="Trazado 147603" d="M428.069,298.8c0,.111-2.109-.034-5.444.475l-1.3.221c-.452.08-.913.215-1.4.327-.971.2-1.97.553-3.032.889a33.687,33.687,0,0,0-12.244,7.52c-.779.794-1.543,1.527-2.164,2.3-.317.381-.646.73-.922,1.1l-.786,1.063c-1.962,2.744-2.787,4.691-2.886,4.64a8.987,8.987,0,0,1,.585-1.354,12.957,12.957,0,0,1,.809-1.532,20.9,20.9,0,0,1,1.222-1.945l.77-1.093c.272-.377.6-.736.912-1.127a31.235,31.235,0,0,1,2.16-2.36,32.636,32.636,0,0,1,12.4-7.617,30.94,30.94,0,0,1,3.082-.86c.49-.1.958-.232,1.417-.3l1.323-.193a20.832,20.832,0,0,1,2.287-.209,12.7,12.7,0,0,1,1.732-.03A8.832,8.832,0,0,1,428.069,298.8Z" transform="translate(-397.89 -298.692)" fill="#263238"/>
                </g>
              </g>
            </g>
            <g id="Grupo_85882" data-name="Grupo 85882" transform="translate(49.016 79.672)">
              <g id="Grupo_85881" data-name="Grupo 85881" transform="translate(0)">
                <g id="Grupo_85880" data-name="Grupo 85880">
                  <path id="Trazado_147604" data-name="Trazado 147604" d="M307.049,405.412a3.368,3.368,0,0,1-.185-.621l-.442-1.8c-.359-1.566-.927-3.822-1.634-6.606s-1.6-6.089-2.457-9.8a53.27,53.27,0,0,1-1.49-12.3,51.928,51.928,0,0,1,1.75-12.266q.37-1.38.72-2.69c.255-.865.544-1.693.8-2.5s.516-1.582.761-2.33l.8-2.114c.985-2.7,1.909-4.842,2.55-6.318l.743-1.7a3.269,3.269,0,0,1,.288-.579,3.482,3.482,0,0,1-.2.616l-.662,1.728c-.588,1.5-1.464,3.649-2.407,6.362q-.366,1.014-.766,2.119l-.733,2.33c-.248.805-.529,1.633-.775,2.5q-.339,1.3-.7,2.681a52.819,52.819,0,0,0-1.7,12.165,54.238,54.238,0,0,0,1.444,12.2c.83,3.7,1.685,7.017,2.357,9.813s1.185,5.067,1.49,6.647c.147.752.266,1.356.356,1.818A3.273,3.273,0,0,1,307.049,405.412Z" transform="translate(-300.838 -343.797)" fill="#263238"/>
                </g>
              </g>
            </g>
            <g id="Grupo_85884" data-name="Grupo 85884" transform="translate(65.495 47.317)" opacity="0.3">
              <g id="Grupo_85883" data-name="Grupo 85883" transform="translate(0)">
                <path id="Trazado_147605" data-name="Trazado 147605" d="M368.589,307.755l-7.1,9.959h-7.911l3.651,7.912L319.2,361.053l41.1-33.875-2.678-6.962,5.891,1.25Z" transform="translate(-319.196 -307.755)"/>
              </g>
            </g>
            <g id="Grupo_85887" data-name="Grupo 85887" transform="translate(60.737 37.516)">
              <g id="Grupo_85886" data-name="Grupo 85886">
                <g id="Grupo_85885" data-name="Grupo 85885">
                  <path id="Trazado_147606" data-name="Trazado 147606" d="M331.658,296.838a1.709,1.709,0,0,1-.133.373l-.446,1.052-1.742,3.943L323.1,316.012l0-.183c.666,1.337,1.368,2.743,2.092,4.194a.223.223,0,0,1-.026.24l-3.6,4.5.041-.078-1.132,3.908a227.4,227.4,0,0,0-5.705,24.422,44.085,44.085,0,0,0-.663,7.55c.008.447.051.841.072,1.185.051.329.094.613.132.859a4.35,4.35,0,0,1,.165.7,4.126,4.126,0,0,1-.257-.68c-.05-.247-.109-.533-.178-.863-.036-.345-.093-.744-.116-1.195a40.461,40.461,0,0,1,.517-7.606,204.906,204.906,0,0,1,5.583-24.5c.39-1.34.774-2.664,1.137-3.914a.265.265,0,0,1,.041-.079l3.608-4.492-.026.24-2.072-4.2a.217.217,0,0,1,0-.184c2.6-5.595,4.813-10.34,6.393-13.735.778-1.637,1.4-2.947,1.851-3.893l.507-1.025A1.724,1.724,0,0,1,331.658,296.838Z" transform="translate(-313.895 -296.838)" fill="#263238"/>
                </g>
              </g>
            </g>
            <g id="Grupo_85889" data-name="Grupo 85889" transform="translate(87.679 101.547)" opacity="0.3">
              <g id="Grupo_85888" data-name="Grupo 85888" transform="translate(0)">
                <path id="Trazado_147607" data-name="Trazado 147607" d="M372.7,371.177l-27.372-3.013-1.422,7.63,27.913,2.886Z" transform="translate(-343.907 -368.163)"/>
              </g>
            </g>
            <g id="Grupo_85891" data-name="Grupo 85891" transform="translate(86.403 100.271)">
              <g id="Grupo_85890" data-name="Grupo 85890">
                <path id="Trazado_147608" data-name="Trazado 147608" d="M371.28,369.755l-27.372-3.013-1.422,7.63,27.913,2.886Z" transform="translate(-342.486 -366.742)" fill="#fff"/>
              </g>
            </g>
          </g>
          <g id="Grupo_85904" data-name="Grupo 85904" transform="translate(56.872 245.34)">
            <g id="Grupo_85894" data-name="Grupo 85894">
              <g id="Grupo_85893" data-name="Grupo 85893">
                <path id="Trazado_147609" data-name="Trazado 147609" d="M232.542,435.8l25.018-18.885s5.489-1.937,7.91-1.614,33.129,2.237,33.129,2.237v28.189l-13.776-3.838s-8.862,2.3-10.96,2.143a9.9,9.9,0,0,0-4.519,1.129s-21.629,10.007-26.955,5.488L240.774,450s-5.166.969-5.649-1.452c0,0-2.26.323-2.583-2.744l7.909-7.909S233.349,439.511,232.542,435.8Z" transform="translate(-232.542 -415.263)" fill="#17efc8"/>
              </g>
            </g>
            <g id="Grupo_85897" data-name="Grupo 85897" transform="translate(7.116 9.072)">
              <g id="Grupo_85896" data-name="Grupo 85896">
                <g id="Grupo_85895" data-name="Grupo 85895">
                  <path id="Trazado_147610" data-name="Trazado 147610" d="M259.824,425.372a3.675,3.675,0,0,1-.723.6l-2.053,1.522-6.762,5.031c-2.64,1.97-5.061,3.716-6.851,4.927-.894.606-1.626,1.085-2.141,1.4a3.619,3.619,0,0,1-.825.454,3.676,3.676,0,0,1,.723-.6l2.052-1.521,6.763-5.033c2.639-1.968,5.06-3.715,6.85-4.926.894-.606,1.625-1.085,2.141-1.4A3.687,3.687,0,0,1,259.824,425.372Z" transform="translate(-240.469 -425.369)" fill="#263238"/>
                </g>
              </g>
            </g>
            <g id="Grupo_85900" data-name="Grupo 85900" transform="translate(3.1 12.795)">
              <g id="Grupo_85899" data-name="Grupo 85899">
                <g id="Grupo_85898" data-name="Grupo 85898">
                  <path id="Trazado_147611" data-name="Trazado 147611" d="M263.2,429.518c.075.105-5.955,4.571-13.466,9.974s-13.664,9.7-13.74,9.594,5.953-4.569,13.467-9.974S263.126,429.414,263.2,429.518Z" transform="translate(-235.995 -429.516)" fill="#263238"/>
                </g>
              </g>
            </g>
            <g id="Grupo_85903" data-name="Grupo 85903" transform="translate(8.795 19.291)">
              <g id="Grupo_85902" data-name="Grupo 85902">
                <g id="Grupo_85901" data-name="Grupo 85901">
                  <path id="Trazado_147612" data-name="Trazado 147612" d="M267.672,436.754a5.558,5.558,0,0,1-.857.792c-.57.488-1.417,1.167-2.483,1.982a94.993,94.993,0,0,1-17.968,10.743c-1.223.554-2.222.979-2.921,1.25a5.577,5.577,0,0,1-1.1.381,5.563,5.563,0,0,1,1.03-.548l2.853-1.381c2.4-1.179,5.68-2.886,9.183-4.979s6.556-4.174,8.73-5.733L266.7,437.4A5.652,5.652,0,0,1,267.672,436.754Z" transform="translate(-242.339 -436.752)" fill="#263238"/>
                </g>
              </g>
            </g>
          </g>
          <g id="Grupo_85943" data-name="Grupo 85943" transform="translate(28.29 204.607)">
            <g id="Grupo_85906" data-name="Grupo 85906">
              <g id="Grupo_85905" data-name="Grupo 85905">
                <path id="Trazado_147613" data-name="Trazado 147613" d="M248.086,376.343s-17.972-5.55-22.026-5.758-10.288-1.455-13.093,0S200.7,381.808,200.7,381.808s1.664,4.156,5.82,2.286a48.681,48.681,0,0,0,6.754-3.637L202.263,394.9s3.533,4.261,6.443,2.7a39.447,39.447,0,0,0,6.547-4.988l-7.587,8.833.831,2.494-1.87,1.871s.831,1.351,3.741,1.558,10.5-4.78,10.5-4.78,9.9,0,10.669.416,16.553,1.144,16.553,1.144l4.578,4.052s8.937-1.454,10.5-5.092.727-16.523,0-17.77-8.949-4.677-8.949-4.677Z" transform="translate(-200.704 -369.889)" fill="#17efc8"/>
              </g>
            </g>
            <g id="Grupo_85909" data-name="Grupo 85909" transform="translate(12.773 5.725)" opacity="0.3">
              <g id="Grupo_85908" data-name="Grupo 85908">
                <g id="Grupo_85907" data-name="Grupo 85907">
                  <path id="Trazado_147614" data-name="Trazado 147614" d="M220.929,404.118a40.2,40.2,0,0,1-5.686-26.093c.1-.782.452-1.765,1.241-1.758.883.009,1.134,1.2,1.126,2.086a58.978,58.978,0,0,0,5.481,24.91l-.77-.02Z" transform="translate(-214.933 -376.267)"/>
                </g>
              </g>
            </g>
            <g id="Grupo_85912" data-name="Grupo 85912" transform="translate(3.287 9.456)">
              <g id="Grupo_85911" data-name="Grupo 85911">
                <g id="Grupo_85910" data-name="Grupo 85910">
                  <path id="Trazado_147615" data-name="Trazado 147615" d="M204.365,385.614a4.07,4.07,0,0,1,.9-.171,15.145,15.145,0,0,0,2.362-.7,40.558,40.558,0,0,0,7.206-3.819l.68-.452.071-.048.08.006c3.013.234,5.7.467,7.639.656.968.094,1.747.179,2.283.247a3,3,0,0,1,.829.151,3.1,3.1,0,0,1-.841.023c-.541-.014-1.324-.049-2.3-.1-1.942-.107-4.636-.285-7.65-.51l.151-.041-.69.462a34.441,34.441,0,0,1-7.351,3.737,11.749,11.749,0,0,1-2.446.572A3.023,3.023,0,0,1,204.365,385.614Z" transform="translate(-204.365 -380.422)" fill="#263238"/>
                </g>
              </g>
            </g>
            <g id="Grupo_85915" data-name="Grupo 85915" transform="translate(7.263 17.939)">
              <g id="Grupo_85914" data-name="Grupo 85914">
                <g id="Grupo_85913" data-name="Grupo 85913">
                  <path id="Trazado_147616" data-name="Trazado 147616" d="M228.624,391.295a2.3,2.3,0,0,1-.7.123,17.339,17.339,0,0,1-1.961.078,21.818,21.818,0,0,1-6.595-1.131l.273-.107a22.653,22.653,0,0,1-1.421,2.269,21.234,21.234,0,0,1-6.233,5.761,18.684,18.684,0,0,1-2.3,1.176,3.585,3.585,0,0,1-.9.3c-.034-.076,1.214-.581,3.017-1.757a22.919,22.919,0,0,0,6.029-5.753,23.9,23.9,0,0,0,1.4-2.215l.1-.168.179.061a24.411,24.411,0,0,0,6.459,1.269C227.625,391.3,228.619,391.228,228.624,391.295Z" transform="translate(-208.794 -389.872)" fill="#263238"/>
                </g>
              </g>
            </g>
            <g id="Grupo_85918" data-name="Grupo 85918" transform="translate(7.543 27.096)">
              <g id="Grupo_85917" data-name="Grupo 85917">
                <g id="Grupo_85916" data-name="Grupo 85916">
                  <path id="Trazado_147617" data-name="Trazado 147617" d="M229.784,401.058c-.014.077-1.26-.183-3.277-.441a15.972,15.972,0,0,0-3.538-.069,9.375,9.375,0,0,0-4.027,1.4,41.611,41.611,0,0,0-3.533,2.573,17.177,17.177,0,0,1-3.06,1.941,7.877,7.877,0,0,1-2.344.718,2.342,2.342,0,0,1-.9.005,11.075,11.075,0,0,0,3.094-1.02,18.951,18.951,0,0,0,2.944-1.985,36.036,36.036,0,0,1,3.556-2.633,9.5,9.5,0,0,1,4.225-1.424,14.792,14.792,0,0,1,3.627.17c1.017.164,1.825.356,2.381.5A3.223,3.223,0,0,1,229.784,401.058Z" transform="translate(-209.107 -400.072)" fill="#263238"/>
                </g>
              </g>
            </g>
            <g id="Grupo_85923" data-name="Grupo 85923" transform="translate(11.898 2.48)">
              <g id="Grupo_85920" data-name="Grupo 85920" transform="translate(0)">
                <g id="Grupo_85919" data-name="Grupo 85919">
                  <path id="Trazado_147618" data-name="Trazado 147618" d="M223.466,409.384a.9.9,0,0,1-.8-.485l-5.455-10.542a35.759,35.759,0,0,1-3.256-14.951V373.55a.9.9,0,1,1,1.8,0v9.857a33.94,33.94,0,0,0,3.075,14.166l5.436,10.5a.9.9,0,0,1-.385,1.209A.885.885,0,0,1,223.466,409.384Z" transform="translate(-213.957 -372.652)" fill="#263238"/>
                </g>
              </g>
              <g id="Grupo_85922" data-name="Grupo 85922" transform="translate(11.653 0.533)">
                <g id="Grupo_85921" data-name="Grupo 85921">
                  <path id="Trazado_147619" data-name="Trazado 147619" d="M227.835,409.191a.9.9,0,0,1-.82-1.262c.064-.144,6.4-14.416,7.164-17.963.766-3.53.4-15.672.4-15.793a.9.9,0,0,1,.87-.926.91.91,0,0,1,.925.87c.016.509.376,12.485-.434,16.229-.808,3.727-7.015,17.719-7.279,18.314A.9.9,0,0,1,227.835,409.191Z" transform="translate(-226.937 -373.246)" fill="#263238"/>
                </g>
              </g>
            </g>
            <g id="Grupo_85925" data-name="Grupo 85925" transform="translate(19.622 38.062)">
              <g id="Grupo_85924" data-name="Grupo 85924" transform="translate(0)">
                <path id="Trazado_147620" data-name="Trazado 147620" d="M224.484,428.733a26.854,26.854,0,0,1-1.854-7.184c-.154-3.091,0-9.262,0-9.262H229.2v9.571s-.85,5.485-1.932,6.876Z" transform="translate(-222.562 -412.287)" fill="#e0e0e0"/>
              </g>
            </g>
            <g id="Grupo_85927" data-name="Grupo 85927" transform="translate(21.921 42.52)">
              <g id="Grupo_85926" data-name="Grupo 85926" transform="translate(0)">
                <ellipse id="Elipse_4331" data-name="Elipse 4331" cx="1.42" cy="1.42" rx="1.42" ry="1.42" fill="#263238"/>
              </g>
            </g>
            <g id="Grupo_85930" data-name="Grupo 85930" transform="translate(22.501 38.062)">
              <g id="Grupo_85929" data-name="Grupo 85929" transform="translate(0)">
                <g id="Grupo_85928" data-name="Grupo 85928">
                  <path id="Trazado_147621" data-name="Trazado 147621" d="M225.86,428.733a2.72,2.72,0,0,1-.031-.483c-.008-.408-.017-.85-.027-1.341-.009-1.3-.02-2.855-.032-4.6v-.09h.092l.695,0-.092.092c0-.468,0-.953,0-1.45.01-2.287.02-4.354.027-6.061.012-.682.022-1.29.03-1.837.006-.174.013-.339.018-.5a.088.088,0,1,1,.038,0c.005.161.012.325.018.5.008.546.018,1.154.03,1.837.007,1.707.017,3.774.027,6.061,0,.5,0,.982,0,1.45v.092h-.092l-.695,0,.09-.091c-.013,1.747-.023,3.3-.032,4.6-.01.491-.019.934-.027,1.341A2.908,2.908,0,0,1,225.86,428.733Z" transform="translate(-225.768 -412.287)" fill="#263238"/>
                </g>
              </g>
            </g>
            <g id="Grupo_85937" data-name="Grupo 85937" transform="translate(26.873 19.844)">
              <g id="Grupo_85933" data-name="Grupo 85933" transform="translate(0.205)" opacity="0.3">
                <g id="Grupo_85932" data-name="Grupo 85932">
                  <g id="Grupo_85931" data-name="Grupo 85931">
                    <path id="Trazado_147622" data-name="Trazado 147622" d="M249.219,396.264a22.678,22.678,0,0,1-1.868-4.271,26.7,26.7,0,0,1-5.272,2.591,8.97,8.97,0,0,1-5.779.087,1.462,1.462,0,0,0-1.018-.14,1.313,1.313,0,0,0-.609.764q-2.078,4.717-3.806,9.579l.428.151c1.97-.151,3.359-1.947,4.4-3.63s2.178-3.563,4.082-4.095c1.3-.364,2.8-.022,3.97-.7.6-.349,1.132-.965,1.826-.92.6.039,1.032.561,1.441,1a10.925,10.925,0,0,0,5.579,3.19C251.16,399.263,250.033,397.591,249.219,396.264Z" transform="translate(-230.867 -391.994)"/>
                  </g>
                </g>
              </g>
              <g id="Grupo_85936" data-name="Grupo 85936" transform="translate(0 12.809)" opacity="0.3">
                <g id="Grupo_85935" data-name="Grupo 85935">
                  <g id="Grupo_85934" data-name="Grupo 85934">
                    <path id="Trazado_147623" data-name="Trazado 147623" d="M230.757,406.561c.028-.076.058-.151.086-.227l-.2-.072Z" transform="translate(-230.639 -406.262)"/>
                  </g>
                </g>
              </g>
            </g>
            <g id="Grupo_85939" data-name="Grupo 85939" transform="translate(30.284 6.43)">
              <g id="Grupo_85938" data-name="Grupo 85938">
                <path id="Trazado_147624" data-name="Trazado 147624" d="M264.378,388.178s-4.519-9.48-9.809-10.913-10.489,4.809-10.489,4.809-7.146,6.054-9.642,8.146c0,0,.04,2.637,3.817,3.248,4.438.719,9.4-2.689,9.4-2.689a13.542,13.542,0,0,0,7.69,8.861h7.708Z" transform="translate(-234.438 -377.052)" fill="#17efc8"/>
              </g>
            </g>
            <g id="Grupo_85942" data-name="Grupo 85942" transform="translate(30.04 6.796)">
              <g id="Grupo_85941" data-name="Grupo 85941">
                <g id="Grupo_85940" data-name="Grupo 85940">
                  <path id="Trazado_147625" data-name="Trazado 147625" d="M258.347,400.074a6.6,6.6,0,0,1-1.1-.161,7.965,7.965,0,0,1-1.3-.306l-.809-.241c-.285-.092-.574-.231-.886-.355a11.727,11.727,0,0,1-3.982-2.7,10.706,10.706,0,0,1-2.856-5.467l.307.166a44.951,44.951,0,0,1-4.6,1.962,20.893,20.893,0,0,1-2.576.748,5.5,5.5,0,0,1-2.821.007,6.252,6.252,0,0,1-3.484-3.21l-.076-.146.128-.119a123.77,123.77,0,0,1,11.4-9.571c1.514-1.092,2.766-1.913,3.646-2.445.435-.273.785-.464,1.018-.6a1.49,1.49,0,0,1,.369-.18,13.277,13.277,0,0,1-1.3.914c-.85.574-2.07,1.43-3.555,2.55a144.273,144.273,0,0,0-11.263,9.666l.052-.266a5.83,5.83,0,0,0,3.2,2.958,5.068,5.068,0,0,0,2.59-.015,20.828,20.828,0,0,0,2.517-.724,46.368,46.368,0,0,0,4.565-1.914l.257-.123.05.29a10.48,10.48,0,0,0,2.69,5.271,11.74,11.74,0,0,0,3.829,2.706c.3.131.582.277.86.376l.788.265a8.909,8.909,0,0,0,1.267.364A6.839,6.839,0,0,1,258.347,400.074Z" transform="translate(-234.166 -377.459)" fill="#263238"/>
                </g>
              </g>
            </g>
          </g>
        </g>
      </g>
    </g>
  </g>
</svg>
