<svg id="Grupo_901947" data-name="Grupo 901947" xmlns="http://www.w3.org/2000/svg" xmlns:xlink="http://www.w3.org/1999/xlink" width="62.993" height="93.154" viewBox="0 0 62.993 93.154">
  <defs>
    <clipPath id="clip-path">
      <path id="Trazado_629944" data-name="Trazado 629944" d="M0,0H62.993V93.154H0Z" fill="none"/>
    </clipPath>
    <clipPath id="clip-path-2">
      <rect id="Rectángulo_335780" data-name="Rectángulo 335780" width="98.18" height="93.155" fill="none"/>
    </clipPath>
    <clipPath id="clip-path-3">
      <rect id="Rectángulo_335758" data-name="Rectángulo 335758" width="1.821" height="1.52" fill="none"/>
    </clipPath>
    <clipPath id="clip-path-4">
      <rect id="Rectángulo_335759" data-name="Rectángulo 335759" width="1.821" height="1.232" fill="none"/>
    </clipPath>
    <clipPath id="clip-path-5">
      <rect id="Rectángulo_335760" data-name="Rectángulo 335760" width="1.822" height="1.521" fill="none"/>
    </clipPath>
    <clipPath id="clip-path-6">
      <rect id="Rectángulo_335761" data-name="Rectángulo 335761" width="8.905" height="26.555" fill="none"/>
    </clipPath>
    <clipPath id="clip-path-7">
      <rect id="Rectángulo_335762" data-name="Rectángulo 335762" width="8.905" height="13.396" fill="none"/>
    </clipPath>
    <clipPath id="clip-path-8">
      <rect id="Rectángulo_335763" data-name="Rectángulo 335763" width="5.015" height="8.271" fill="none"/>
    </clipPath>
    <clipPath id="clip-path-9">
      <rect id="Rectángulo_335767" data-name="Rectángulo 335767" width="2.165" height="1.519" fill="none"/>
    </clipPath>
    <clipPath id="clip-path-10">
      <rect id="Rectángulo_335768" data-name="Rectángulo 335768" width="2.166" height="1.175" fill="none"/>
    </clipPath>
    <clipPath id="clip-path-12">
      <rect id="Rectángulo_335773" data-name="Rectángulo 335773" width="9.598" height="22.194" fill="none"/>
    </clipPath>
    <clipPath id="clip-path-13">
      <rect id="Rectángulo_335774" data-name="Rectángulo 335774" width="9.598" height="12.374" fill="none"/>
    </clipPath>
    <clipPath id="clip-path-14">
      <rect id="Rectángulo_335775" data-name="Rectángulo 335775" width="9.598" height="11.549" fill="none"/>
    </clipPath>
    <clipPath id="clip-path-15">
      <rect id="Rectángulo_335776" data-name="Rectángulo 335776" width="9.598" height="15.854" fill="none"/>
    </clipPath>
    <clipPath id="clip-path-16">
      <rect id="Rectángulo_335777" data-name="Rectángulo 335777" width="6.98" height="9.959" fill="none"/>
    </clipPath>
    <clipPath id="clip-path-17">
      <rect id="Rectángulo_335778" data-name="Rectángulo 335778" width="8.162" height="5.683" fill="none"/>
    </clipPath>
    <clipPath id="clip-path-18">
      <rect id="Rectángulo_335779" data-name="Rectángulo 335779" width="8.162" height="5.684" fill="none"/>
    </clipPath>
  </defs>
  <g id="Enmascarar_grupo_901919" data-name="Enmascarar grupo 901919" transform="translate(0 0)" clip-path="url(#clip-path)">
    <g id="Grupo_899393" data-name="Grupo 899393" transform="translate(0 -0.001)">
      <g id="Grupo_899392" data-name="Grupo 899392" clip-path="url(#clip-path-2)">
        <path id="Trazado_627203" data-name="Trazado 627203" d="M35.349,25.171V49.959a.911.911,0,0,0,1.821,0V25.171Z" transform="translate(-14.633 28.692)" fill="#9aa3b5"/>
        <path id="Trazado_627204" data-name="Trazado 627204" d="M43.282,25.171V49.959a.912.912,0,0,0,1.823,0V25.171Z" transform="translate(-39.544 28.692)" fill="#9aa3b5"/>
        <path id="Trazado_627205" data-name="Trazado 627205" d="M39.29,22.241V47.029a.911.911,0,1,0,1.821,0V22.241Z" transform="translate(-27.007 25.352)" fill="#9aa3b5"/>
        <path id="Trazado_627206" data-name="Trazado 627206" d="M33.6,23.917c0-1.376,5.883-2.491,13.139-2.491s13.135,1.115,13.135,2.491S54,26.41,46.742,26.41,33.6,25.295,33.6,23.917" transform="translate(-33.603 24.423)" fill="#fdbb86"/>
        <path id="Trazado_627207" data-name="Trazado 627207" d="M34.066,17.723v10.2c0,.766,1.977,1.447,5.018,1.864a53.23,53.23,0,0,0,7.128.439c6.706,0,12.144-1.031,12.144-2.3v-10.2c0,1.273-5.437,2.3-12.144,2.3a53.589,53.589,0,0,1-7.128-.439c-3.041-.417-5.018-1.1-5.018-1.864" transform="translate(-33.073 20.203)" fill="#fc865e"/>
        <path id="Trazado_627208" data-name="Trazado 627208" d="M33.6,22.59V33.625c0,1.1,3.726,2.026,8.906,2.36,1.07.068,2.2.111,3.377.126.282,0,.567.006.856.006.323,0,.646,0,.965-.006a56.666,56.666,0,0,0,6.612-.452c.653-.088,1.263-.186,1.821-.3,2.313-.447,3.738-1.061,3.738-1.74V22.59c0,1.376-5.883,2.493-13.137,2.493-1.483,0-2.906-.047-4.233-.135-5.181-.332-8.906-1.263-8.906-2.358" transform="translate(-33.602 25.75)" fill="#fdbb86"/>
        <g id="Grupo_899328" data-name="Grupo 899328" transform="translate(20.716 61.116)" opacity="0.5">
          <g id="Grupo_899327" data-name="Grupo 899327" transform="translate(0)">
            <g id="Grupo_899326" data-name="Grupo 899326" clip-path="url(#clip-path-3)">
              <path id="Trazado_627209" data-name="Trazado 627209" d="M35.349,28.856V30.08c.653-.086,1.263-.184,1.821-.293V28.561c-.556.109-1.168.208-1.821.3" transform="translate(-35.349 -28.56)" fill="#566684"/>
            </g>
          </g>
        </g>
        <g id="Grupo_899331" data-name="Grupo 899331" transform="translate(12.283 61.863)" opacity="0.5">
          <g id="Grupo_899330" data-name="Grupo 899330" transform="translate(0)">
            <g id="Grupo_899329" data-name="Grupo 899329" clip-path="url(#clip-path-4)">
              <path id="Trazado_627210" data-name="Trazado 627210" d="M39.29,28.91v1.226c.282,0,.567,0,.856,0,.323,0,.646,0,.965-.006V28.91c-.319,0-.642.006-.965.006-.289,0-.573,0-.856-.006" transform="translate(-39.29 -28.908)" fill="#566684"/>
            </g>
          </g>
        </g>
        <g id="Grupo_899334" data-name="Grupo 899334" transform="translate(3.738 61.117)" opacity="0.5">
          <g id="Grupo_899333" data-name="Grupo 899333" transform="translate(0)">
            <g id="Grupo_899332" data-name="Grupo 899332" clip-path="url(#clip-path-5)">
              <path id="Trazado_627211" data-name="Trazado 627211" d="M43.282,28.561v1.226q.838.16,1.823.3V28.856q-.985-.132-1.823-.3" transform="translate(-43.281 -28.561)" fill="#566684"/>
            </g>
          </g>
        </g>
        <path id="Trazado_627212" data-name="Trazado 627212" d="M33.6,7.744v24.2c0,1.093,3.726,2.024,8.906,2.358,1.327.086,2.75.133,4.233.133,7.254,0,13.137-1.115,13.137-2.491V7.744Z" transform="translate(-33.602 8.828)" fill="#fdbb86"/>
        <path id="Trazado_627213" data-name="Trazado 627213" d="M33.6,9.071c0,1.1,3.726,2.026,8.906,2.36,1.327.088,2.75.133,4.233.133,7.254,0,13.137-1.115,13.137-2.491S54,6.58,46.741,6.58,33.606,7.695,33.6,9.071" transform="translate(-33.602 7.501)" fill="#fed6b6"/>
        <path id="Trazado_627214" data-name="Trazado 627214" d="M34.066,8.622a4.409,4.409,0,0,0,.948.422,17.36,17.36,0,0,0,2.649.618,54.286,54.286,0,0,0,8.549.61,54.218,54.218,0,0,0,8.547-.61,17.231,17.231,0,0,0,2.649-.618,4.307,4.307,0,0,0,.948-.422,10.331,10.331,0,0,0-3.6-1.038,54.218,54.218,0,0,0-8.547-.61,54.286,54.286,0,0,0-8.549.61,10.35,10.35,0,0,0-3.6,1.038" transform="translate(-33.073 7.95)" fill="#fdbb86"/>
        <path id="Trazado_627215" data-name="Trazado 627215" d="M34.509,8.6a17.36,17.36,0,0,0,2.649.618,54.247,54.247,0,0,0,8.549.61,54.238,54.238,0,0,0,8.547-.61A17.36,17.36,0,0,0,56.9,8.6a17.36,17.36,0,0,0-2.649-.618,54.238,54.238,0,0,0-8.547-.61,54.247,54.247,0,0,0-8.549.61,17.36,17.36,0,0,0-2.649.618" transform="translate(-32.568 8.398)" fill="#fc865e"/>
        <g id="Grupo_899337" data-name="Grupo 899337" transform="translate(0 16.572)" opacity="0.4">
          <g id="Grupo_899336" data-name="Grupo 899336">
            <g id="Grupo_899335" data-name="Grupo 899335" clip-path="url(#clip-path-6)">
              <path id="Trazado_627216" data-name="Trazado 627216" d="M41.719,7.744v24.2c0,.338.353.659.993.952a18.829,18.829,0,0,0,5.016,1.143c.9.109,1.868.2,2.9.265V10.1c-5.181-.334-8.906-1.265-8.906-2.36" transform="translate(-41.719 -7.744)" fill="#fc865e"/>
            </g>
          </g>
        </g>
        <g id="Grupo_899340" data-name="Grupo 899340" transform="translate(0 48.341)" opacity="0.4">
          <g id="Grupo_899339" data-name="Grupo 899339">
            <g id="Grupo_899338" data-name="Grupo 899338" clip-path="url(#clip-path-7)">
              <path id="Trazado_627217" data-name="Trazado 627217" d="M41.719,22.59V33.625c0,.678,1.425,1.292,3.738,1.742.556.107,1.166.208,1.821.3,1.019.135,2.144.246,3.347.323V24.948c-5.181-.332-8.906-1.263-8.906-2.358" transform="translate(-41.719 -22.591)" fill="#fc865e"/>
            </g>
          </g>
        </g>
        <g id="Grupo_899343" data-name="Grupo 899343" transform="translate(0.994 41.72)" opacity="0.25">
          <g id="Grupo_899342" data-name="Grupo 899342">
            <g id="Grupo_899341" data-name="Grupo 899341" clip-path="url(#clip-path-8)">
              <path id="Trazado_627218" data-name="Trazado 627218" d="M43.072,19.5V25.9c0,.766,1.977,1.447,5.018,1.864V20.639A18.849,18.849,0,0,1,43.072,19.5" transform="translate(-43.073 -19.496)" fill="#af5030"/>
            </g>
          </g>
        </g>
        <path id="Trazado_627233" data-name="Trazado 627233" d="M19.323,29.258V58.72a1.083,1.083,0,0,0,2.166,0V29.258Z" transform="translate(35.342 33.351)" fill="#9aa3b5"/>
        <path id="Trazado_627234" data-name="Trazado 627234" d="M28.754,29.258V58.72a1.083,1.083,0,0,0,2.166,0V29.258Z" transform="translate(5.73 33.351)" fill="#9aa3b5"/>
        <path id="Trazado_627235" data-name="Trazado 627235" d="M24.008,25.775V55.239a1.083,1.083,0,0,0,2.166,0V25.775Z" transform="translate(20.632 29.381)" fill="#9aa3b5"/>
        <path id="Trazado_627236" data-name="Trazado 627236" d="M17.247,27.769c0-1.637,6.991-2.962,15.615-2.962s15.617,1.325,15.617,2.962S41.488,30.73,32.862,30.73,17.247,29.4,17.247,27.769" transform="translate(12.795 28.277)" fill="#9aa3b5"/>
        <path id="Trazado_627237" data-name="Trazado 627237" d="M17.8,20.4V32.532c0,.993,2.8,1.864,6.98,2.343a66.964,66.964,0,0,0,7.455.392c7.971,0,14.434-1.224,14.434-2.735V20.4c0,1.511-6.462,2.737-14.434,2.737a66.964,66.964,0,0,1-7.455-.392C20.6,22.269,17.8,21.4,17.8,20.4" transform="translate(13.424 23.26)" fill="#404c63"/>
        <path id="Trazado_627238" data-name="Trazado 627238" d="M17.247,26.19V39.307c0,.8,1.695,1.534,4.445,2.069.663.131,1.389.246,2.163.351.929.126,1.93.231,2.989.317,1.556.122,3.24.2,5,.218.336,0,.676.006,1.019.006.387,0,.768,0,1.149-.006a67.515,67.515,0,0,0,7.858-.535c.779-.1,1.5-.22,2.166-.351,2.748-.535,4.442-1.265,4.442-2.069V26.19c0,1.637-6.991,2.962-15.615,2.962-2.133,0-4.166-.081-6.019-.229-5.636-.445-9.6-1.5-9.6-2.733" transform="translate(12.795 29.854)" fill="#566684"/>
        <g id="Grupo_899355" data-name="Grupo 899355" transform="translate(54.665 71.232)" opacity="0.5">
          <g id="Grupo_899354" data-name="Grupo 899354" transform="translate(0)">
            <g id="Grupo_899353" data-name="Grupo 899353" clip-path="url(#clip-path-9)">
              <path id="Trazado_627239" data-name="Trazado 627239" d="M19.323,33.639v1.168c.777-.1,1.5-.223,2.166-.351V33.288c-.663.128-1.389.246-2.166.351" transform="translate(-19.323 -33.287)" fill="#566684"/>
            </g>
          </g>
        </g>
        <g id="Grupo_899358" data-name="Grupo 899358" transform="translate(44.64 72.118)" opacity="0.5">
          <g id="Grupo_899357" data-name="Grupo 899357" transform="translate(0)">
            <g id="Grupo_899356" data-name="Grupo 899356" clip-path="url(#clip-path-10)">
              <path id="Trazado_627240" data-name="Trazado 627240" d="M24.008,33.7V34.87c.336,0,.676.006,1.019.006.385,0,.768,0,1.147-.006V33.7c-.379,0-.762.006-1.147.006-.342,0-.683,0-1.019-.006" transform="translate(-24.008 -33.701)" fill="#566684"/>
            </g>
          </g>
        </g>
        <g id="Grupo_899361" data-name="Grupo 899361" transform="translate(34.485 71.232)" opacity="0.5">
          <g id="Grupo_899360" data-name="Grupo 899360" transform="translate(0)">
            <g id="Grupo_899359" data-name="Grupo 899359" clip-path="url(#clip-path-9)">
              <path id="Trazado_627241" data-name="Trazado 627241" d="M28.754,33.288v1.168c.663.128,1.389.246,2.166.351V33.639c-.777-.1-1.5-.22-2.166-.351" transform="translate(-28.755 -33.287)" fill="#566684"/>
            </g>
          </g>
        </g>
        <path id="Trazado_627242" data-name="Trazado 627242" d="M17.247,1.384V45.465c0,1.23,3.961,2.285,9.6,2.73,1.853.15,3.886.229,6.019.229,8.624,0,15.615-1.325,15.615-2.959V1.384Z" transform="translate(12.795 1.578)" fill="#566684"/>
        <path id="Trazado_627243" data-name="Trazado 627243" d="M17.247,16.423V19.5c0,1.126,3.3,2.1,8.162,2.6q.7.074,1.436.131c1.853.15,3.886.229,6.019.229,8.624,0,15.615-1.325,15.615-2.962V16.423c0,1.637-6.991,2.962-15.615,2.962-2.133,0-4.166-.081-6.019-.227q-.738-.058-1.436-.133c-4.862-.5-8.162-1.479-8.162-2.6" transform="translate(12.795 18.721)" fill="#404c63"/>
        <path id="Trazado_627244" data-name="Trazado 627244" d="M17.247,10.479V13.56c0,1.123,3.3,2.1,8.162,2.6.464.047.944.092,1.436.131,1.853.148,3.886.229,6.019.229,8.624,0,15.615-1.327,15.615-2.962V10.479c0,1.635-6.991,2.962-15.615,2.962-2.133,0-4.166-.081-6.019-.229q-.738-.058-1.436-.131c-4.862-.5-8.162-1.479-8.162-2.6" transform="translate(12.795 11.945)" fill="#404c63"/>
        <path id="Trazado_627245" data-name="Trazado 627245" d="M17.247,2.962c0,1.23,3.961,2.285,9.6,2.733,1.853.148,3.886.229,6.019.229,8.624,0,15.615-1.327,15.615-2.962S41.488,0,32.864,0,17.247,1.325,17.247,2.962" transform="translate(12.795 0.001)" fill="#9aa3b5"/>
        <path id="Trazado_627246" data-name="Trazado 627246" d="M17.8,2.428a5.077,5.077,0,0,0,1.126.5,20.766,20.766,0,0,0,3.148.736,64.707,64.707,0,0,0,10.162.725,64.658,64.658,0,0,0,10.16-.725,20.7,20.7,0,0,0,3.148-.736,5.16,5.16,0,0,0,1.128-.5,12.25,12.25,0,0,0-4.275-1.235A64.658,64.658,0,0,0,32.234.468a64.707,64.707,0,0,0-10.162.725A12.229,12.229,0,0,0,17.8,2.428" transform="translate(13.425 0.534)" fill="#566684"/>
        <path id="Trazado_627247" data-name="Trazado 627247" d="M18.325,2.4a20.505,20.505,0,0,0,3.148.736,64.707,64.707,0,0,0,10.162.725A64.658,64.658,0,0,0,41.8,3.133,20.441,20.441,0,0,0,44.943,2.4,20.758,20.758,0,0,0,41.8,1.663,64.38,64.38,0,0,0,31.635.935a64.429,64.429,0,0,0-10.162.728,20.824,20.824,0,0,0-3.148.734" transform="translate(14.024 1.066)" fill="#404c63"/>
        <g id="Grupo_899373" data-name="Grupo 899373" transform="translate(30.041 2.963)" opacity="0.5">
          <g id="Grupo_899372" data-name="Grupo 899372">
            <g id="Grupo_899371" data-name="Grupo 899371" clip-path="url(#clip-path-12)">
              <path id="Trazado_627253" data-name="Trazado 627253" d="M27.357,1.384v19.46c0,1.233,3.961,2.288,9.6,2.735V4.117c-5.636-.447-9.6-1.5-9.6-2.733" transform="translate(-27.356 -1.385)" fill="#404c63"/>
            </g>
          </g>
        </g>
        <g id="Grupo_899376" data-name="Grupo 899376" transform="translate(30.041 25.504)" opacity="0.5">
          <g id="Grupo_899375" data-name="Grupo 899375">
            <g id="Grupo_899374" data-name="Grupo 899374" clip-path="url(#clip-path-13)">
              <path id="Trazado_627254" data-name="Trazado 627254" d="M27.357,11.918v9.64c0,1.233,3.961,2.288,9.6,2.735V14.651c-5.636-.445-9.6-1.5-9.6-2.733" transform="translate(-27.356 -11.919)" fill="#404c63"/>
            </g>
          </g>
        </g>
        <g id="Grupo_899379" data-name="Grupo 899379" transform="translate(30.041 38.227)" opacity="0.5">
          <g id="Grupo_899378" data-name="Grupo 899378">
            <g id="Grupo_899377" data-name="Grupo 899377" clip-path="url(#clip-path-14)">
              <path id="Trazado_627255" data-name="Trazado 627255" d="M27.357,17.864V26.68c0,.4.419.783,1.181,1.134a25.03,25.03,0,0,0,6.98,1.468c.464.047.944.092,1.436.131V20.6c-5.636-.447-9.6-1.5-9.6-2.733" transform="translate(-27.356 -17.863)" fill="#404c63"/>
            </g>
          </g>
        </g>
        <g id="Grupo_899382" data-name="Grupo 899382" transform="translate(30.041 56.045)" opacity="0.5">
          <g id="Grupo_899381" data-name="Grupo 899381">
            <g id="Grupo_899380" data-name="Grupo 899380" clip-path="url(#clip-path-15)">
              <path id="Trazado_627256" data-name="Trazado 627256" d="M27.357,26.19V39.307c0,.8,1.695,1.534,4.445,2.069.663.131,1.389.246,2.163.351.929.126,1.93.231,2.989.317V28.923c-5.636-.445-9.6-1.5-9.6-2.733" transform="translate(-27.356 -26.191)" fill="#404c63"/>
            </g>
          </g>
        </g>
        <g id="Grupo_899385" data-name="Grupo 899385" transform="translate(31.223 48.176)" opacity="0.5">
          <g id="Grupo_899384" data-name="Grupo 899384" transform="translate(0)">
            <g id="Grupo_899383" data-name="Grupo 899383" clip-path="url(#clip-path-16)">
              <path id="Trazado_627257" data-name="Trazado 627257" d="M28.028,22.513v7.614c0,1,2.8,1.866,6.98,2.345V23.981a24.952,24.952,0,0,1-6.98-1.468" transform="translate(-28.028 -22.513)" fill="#30394a"/>
            </g>
          </g>
        </g>
        <g id="Grupo_899388" data-name="Grupo 899388" transform="translate(30.041 22.423)" opacity="0.5">
          <g id="Grupo_899387" data-name="Grupo 899387">
            <g id="Grupo_899386" data-name="Grupo 899386" clip-path="url(#clip-path-17)">
              <path id="Trazado_627258" data-name="Trazado 627258" d="M28.028,10.479V13.56c0,1.123,3.3,2.1,8.162,2.6V13.081c-4.862-.5-8.162-1.479-8.162-2.6" transform="translate(-28.027 -10.478)" fill="#30394a"/>
            </g>
          </g>
        </g>
        <g id="Grupo_899391" data-name="Grupo 899391" transform="translate(30.041 35.144)" opacity="0.5">
          <g id="Grupo_899390" data-name="Grupo 899390">
            <g id="Grupo_899389" data-name="Grupo 899389" clip-path="url(#clip-path-18)">
              <path id="Trazado_627259" data-name="Trazado 627259" d="M28.028,16.423V19.5c0,1.126,3.3,2.1,8.162,2.6V19.025c-4.862-.5-8.162-1.479-8.162-2.6" transform="translate(-28.027 -16.424)" fill="#30394a"/>
            </g>
          </g>
        </g>
      </g>
    </g>
  </g>
</svg>
