<svg id="Grupo_901297" data-name="Grupo 901297" xmlns="http://www.w3.org/2000/svg" xmlns:xlink="http://www.w3.org/1999/xlink" width="133.633" height="54.664" viewBox="0 0 133.633 54.664">
  <defs>
    <clipPath id="clip-path">
      <rect id="Rectángulo_335786" data-name="Rectángulo 335786" width="133.632" height="54.664" fill="none"/>
    </clipPath>
  </defs>
  <g id="Grupo_899406" data-name="Grupo 899406" transform="translate(0 0)" clip-path="url(#clip-path)">
    <path id="Trazado_627276" data-name="Trazado 627276" d="M133.632,37.442H0V.945A.945.945,0,0,1,.945,0H132.688a.943.943,0,0,1,.945.945Z" transform="translate(0 -0.001)" fill="#566684"/>
    <path id="Trazado_627277" data-name="Trazado 627277" d="M133.345,29.465H.287A.288.288,0,0,1,0,29.178V14.6a.288.288,0,0,1,.287-.287H133.345a.288.288,0,0,1,.287.287V29.178a.288.288,0,0,1-.287.287" transform="translate(0 17.053)" fill="#404c63"/>
    <path id="Trazado_627278" data-name="Trazado 627278" d="M129.128,24.678H1.821a.7.7,0,0,1-.7-.7V16.971a.7.7,0,0,1,.7-.7H129.128a.7.7,0,0,1,.7.7v7.008a.7.7,0,0,1-.7.7" transform="translate(1.34 19.394)" fill="#566684"/>
    <path id="Trazado_627279" data-name="Trazado 627279" d="M5.9,33.49H2.058v-13.8a1.923,1.923,0,0,1,3.847,0Z" transform="translate(2.453 21.174)" fill="#fcd43b"/>
    <path id="Trazado_627280" data-name="Trazado 627280" d="M16.924,33.49H13.077v-13.8a1.923,1.923,0,0,1,3.847,0Z" transform="translate(15.587 21.174)" fill="#fcd43b"/>
    <path id="Trazado_627281" data-name="Trazado 627281" d="M27.943,33.49H24.1v-13.8a1.923,1.923,0,0,1,3.847,0Z" transform="translate(28.72 21.174)" fill="#fcd43b"/>
    <path id="Trazado_627282" data-name="Trazado 627282" d="M38.962,33.49H35.115v-13.8a1.923,1.923,0,0,1,3.847,0Z" transform="translate(41.854 21.174)" fill="#fcd43b"/>
    <path id="Trazado_627283" data-name="Trazado 627283" d="M49.981,33.49H46.134v-13.8a1.923,1.923,0,0,1,3.847,0Z" transform="translate(54.988 21.174)" fill="#fcd43b"/>
    <path id="Trazado_627284" data-name="Trazado 627284" d="M61,33.49H57.152v-13.8a1.923,1.923,0,0,1,3.847,0Z" transform="translate(68.12 21.174)" fill="#fcd43b"/>
    <path id="Trazado_627285" data-name="Trazado 627285" d="M120.567,3.891H4.6a1.051,1.051,0,0,0-1.052,1.05V23.228A1.051,1.051,0,0,0,4.6,24.278H120.567a1.051,1.051,0,0,0,1.052-1.05V4.941a1.051,1.051,0,0,0-1.052-1.05" transform="translate(4.232 4.637)" fill="#404c63"/>
    <path id="Trazado_627286" data-name="Trazado 627286" d="M120.567,1.167H4.6a1.051,1.051,0,0,0-1.052,1.05V20.506A1.052,1.052,0,0,0,4.6,21.556H120.567a1.052,1.052,0,0,0,1.052-1.05V2.217a1.051,1.051,0,0,0-1.052-1.05" transform="translate(4.232 1.39)" fill="#f5d970"/>
    <path id="Trazado_627287" data-name="Trazado 627287" d="M89.554,6.273H13.4a.536.536,0,0,1-.535-.537V3.952a.536.536,0,0,1,.535-.535H89.554a.534.534,0,0,1,.535.535V5.736a.535.535,0,0,1-.535.537" transform="translate(15.338 4.072)" fill="#404c63"/>
    <path id="Trazado_627288" data-name="Trazado 627288" d="M89.554,5.772H13.4a.536.536,0,0,1-.535-.537V3.451a.536.536,0,0,1,.535-.535H89.554a.534.534,0,0,1,.535.535V5.235a.535.535,0,0,1-.535.537" transform="translate(15.338 3.475)" fill="#566684"/>
    <path id="Trazado_627289" data-name="Trazado 627289" d="M89.554,10.274H13.4a.537.537,0,0,1-.535-.537V7.953a.537.537,0,0,1,.535-.537H89.554a.536.536,0,0,1,.535.537V9.737a.536.536,0,0,1-.535.537" transform="translate(15.338 8.838)" fill="#404c63"/>
    <path id="Trazado_627290" data-name="Trazado 627290" d="M89.554,9.771H13.4a.536.536,0,0,1-.535-.535V7.45a.536.536,0,0,1,.535-.535H89.554a.534.534,0,0,1,.535.535V9.236a.534.534,0,0,1-.535.535" transform="translate(15.338 8.241)" fill="#566684"/>
    <path id="Trazado_627291" data-name="Trazado 627291" d="M9.005,6.349H6.745a.36.36,0,0,1-.359-.362V3.73a.359.359,0,0,1,.359-.362h2.26a.359.359,0,0,1,.359.362V5.987a.36.36,0,0,1-.359.362" transform="translate(7.612 4.013)" fill="#404c63"/>
    <path id="Trazado_627292" data-name="Trazado 627292" d="M9.005,6.02H6.745a.36.36,0,0,1-.359-.362V3.4a.36.36,0,0,1,.359-.362h2.26a.36.36,0,0,1,.359.362V5.658a.36.36,0,0,1-.359.362" transform="translate(7.612 3.621)" fill="#566684"/>
    <path id="Trazado_627293" data-name="Trazado 627293" d="M9.005,10.217H6.745a.36.36,0,0,1-.359-.362V7.6a.359.359,0,0,1,.359-.362h2.26a.359.359,0,0,1,.359.362V9.855a.36.36,0,0,1-.359.362" transform="translate(7.612 8.624)" fill="#404c63"/>
    <path id="Trazado_627294" data-name="Trazado 627294" d="M9.005,9.889H6.745a.36.36,0,0,1-.359-.362V7.27a.36.36,0,0,1,.359-.362h2.26a.36.36,0,0,1,.359.362V9.527a.36.36,0,0,1-.359.362" transform="translate(7.612 8.233)" fill="#566684"/>
    <path id="Trazado_627295" data-name="Trazado 627295" d="M55.838,6.349H53.583a.361.361,0,0,1-.362-.362V3.73a.359.359,0,0,1,.362-.362h2.255a.359.359,0,0,1,.362.362V5.987a.361.361,0,0,1-.362.362" transform="translate(63.435 4.013)" fill="#404c63"/>
    <path id="Trazado_627296" data-name="Trazado 627296" d="M55.838,6.02H53.583a.361.361,0,0,1-.362-.362V3.4a.361.361,0,0,1,.362-.362h2.255A.361.361,0,0,1,56.2,3.4V5.658a.361.361,0,0,1-.362.362" transform="translate(63.435 3.621)" fill="#566684"/>
    <path id="Trazado_627297" data-name="Trazado 627297" d="M55.838,10.217H53.583a.361.361,0,0,1-.362-.362V7.6a.359.359,0,0,1,.362-.362h2.255A.359.359,0,0,1,56.2,7.6V9.855a.361.361,0,0,1-.362.362" transform="translate(63.435 8.624)" fill="#404c63"/>
    <path id="Trazado_627298" data-name="Trazado 627298" d="M55.838,9.889H53.583a.361.361,0,0,1-.362-.362V7.27a.361.361,0,0,1,.362-.362h2.255a.361.361,0,0,1,.362.362V9.527a.361.361,0,0,1-.362.362" transform="translate(63.435 8.233)" fill="#566684"/>
  </g>
</svg>
